<svg width="48" height="48" fill="none" xmlns="http://www.w3.org/2000/svg"><path d="M30.163 24.939c-.482 3.226-3.08 5.684-6.112 5.856v4.09c0 .2-.152.365-.342.365a.353.353 0 01-.343-.364v-4.09c-3.033-.173-5.63-2.634-6.112-5.857-.029-.198.097-.385.282-.416.186-.033.361.103.39.3.449 2.995 2.935 5.256 5.78 5.256 2.848 0 5.332-2.259 5.78-5.256.028-.197.204-.333.39-.3a.363.363 0 01.287.416h0zm-10.41-1.093v-7.632c0-2.323 1.775-4.214 3.956-4.214 2.18 0 3.956 1.889 3.956 4.214v7.632c0 2.322-1.776 4.214-3.956 4.214-2.18 0-3.956-1.892-3.956-4.214v0zm.682 0c0 1.922 1.467 3.487 3.274 3.487s3.274-1.563 3.274-3.487v-7.632c0-1.922-1.467-3.488-3.274-3.488s-3.274 1.563-3.274 3.488v7.632z" fill="#fff" stroke="#fff" stroke-width=".5"/></svg>