<svg width="40" height="40" fill="none" xmlns="http://www.w3.org/2000/svg"><path d="M27.176 27.5a.357.357 0 00.324-.358v-3.805a.357.357 0 10-.714 0v3.448h-3.454a.357.357 0 100 .715h3.844zm-10.474 0a.358.358 0 10-.033-.715h-3.455v-3.448a.357.357 0 10-.714 0v3.805c0 .198.16.358.357.358h3.845zm10.48-10.469a.357.357 0 00.318-.363v-3.81a.357.357 0 00-.357-.358H23.33a.357.357 0 100 .714h3.455v3.454a.357.357 0 00.396.363zm-14.286 0a.357.357 0 00.318-.363v-3.454h3.454a.357.357 0 100-.714h-3.81a.357.357 0 00-.358.357v3.811a.357.357 0 00.396.363z" fill="#fff"/></svg>