<svg width="70" height="70" fill="none" xmlns="http://www.w3.org/2000/svg"><g clip-path="url(#clip0_5704_15538)" fill="#fff"><path d="M59.545 18.637v-7.934h-49.1v48.854h49.1v-40.92zM20.02 49.983V20.032h29.973v29.95H20.02zm-15.556-.884a4.464 4.464 0 100-8.927 4.464 4.464 0 000 8.927zm0-20.086a4.464 4.464 0 100-8.927 4.464 4.464 0 000 8.927zM24.862 8.927a4.464 4.464 0 100-8.927 4.464 4.464 0 000 8.927zm20.086 0a4.464 4.464 0 100-8.927 4.464 4.464 0 000 8.927zM24.862 69.185a4.464 4.464 0 100-8.927 4.464 4.464 0 000 8.927zm20.086 0a4.464 4.464 0 100-8.927 4.464 4.464 0 000 8.927zm20.59-20.086a4.464 4.464 0 100-8.927 4.464 4.464 0 000 8.927zm0-20.086a4.464 4.464 0 100-8.927 4.464 4.464 0 000 8.927z"/></g><defs><clipPath id="clip0_5704_15538"><path fill="#fff" d="M0 0h70v69.185H0z"/></clipPath></defs></svg>