<svg width="40" height="40" fill="none" xmlns="http://www.w3.org/2000/svg"><path d="M27.077 10a.424.424 0 00-.424.424v1.513h-6.43a2.915 2.915 0 00-2.887 2.531 4.673 4.673 0 00-4.238 4.64v.879a1.033 1.033 0 00-.598.951 1.05 1.05 0 001.036 1.044h8.472a1.045 1.045 0 00.409-1.995v-.88a4.659 4.659 0 00-4.224-4.639 2.069 2.069 0 012.03-1.684h6.43v1.755a.424.424 0 00.847 0v-4.115a.423.423 0 00-.424-.424zm-5.069 11.135h-8.471a.182.182 0 010-.363h8.472a.182.182 0 010 .363zm-.438-2.027v.816h-7.625v-.816a3.813 3.813 0 017.625 0zm-6.719 5.024c.197-.188.486-.473.486-1.002v-.242a.424.424 0 00-.847 0v.242c0 .16-.052.225-.225.39-.197.19-.49.474-.49 1.002 0 .529.3.814.496 1.002.173.166.233.231.233.39 0 .16-.059.225-.232.39-.196.189-.493.473-.493 1.002s.29.813.486 1.002c.173.165.225.23.225.39v.363a.424.424 0 00.847 0v-.363c0-.529-.29-.814-.486-1.002-.173-.166-.229-.231-.229-.39 0-.16.062-.225.235-.39.197-.189.494-.473.494-1.002s-.296-.813-.493-1.002c-.173-.165-.236-.23-.236-.39 0-.159.056-.224.23-.39zm3.026 0c.196-.188.486-.473.486-1.002v-.242a.424.424 0 00-.848 0v.242c0 .16-.052.225-.224.39-.197.19-.49.474-.49 1.002 0 .529.299.814.495 1.002.173.166.234.231.234.39 0 .16-.06.225-.232.39-.197.189-.494.473-.494 1.002s.29.813.486 1.002c.173.165.226.23.226.39v.363a.424.424 0 00.847 0v-.363c0-.529-.29-.814-.486-1.002-.173-.166-.23-.231-.23-.39 0-.16.062-.225.235-.39.197-.189.495-.473.495-1.002s-.297-.813-.493-1.002c-.173-.165-.236-.23-.236-.39 0-.159.056-.224.229-.39zm3.025 0c.197-.188.486-.473.486-1.002v-.242a.424.424 0 00-.847 0v.242c0 .16-.052.225-.225.39-.197.19-.49.474-.49 1.002 0 .529.3.814.496 1.002.172.166.233.231.233.39 0 .16-.06.225-.232.39-.196.189-.493.473-.493 1.002s.29.813.486 1.002c.173.165.225.23.225.39v.363a.424.424 0 00.847 0v-.363c0-.529-.29-.814-.486-1.002-.173-.166-.229-.231-.229-.39 0-.16.062-.225.235-.39.196-.189.494-.473.494-1.002s-.296-.813-.493-1.002c-.173-.165-.236-.23-.236-.39 0-.159.056-.224.229-.39z" fill="#FFCD1A"/></svg>