<svg width="64" height="64" fill="none" xmlns="http://www.w3.org/2000/svg"><path d="M44.753 19H19.247a2.339 2.339 0 00-2.333 2.338V32.83a2.338 2.338 0 002.333 2.338h25.506a2.338 2.338 0 002.334-2.338V21.34A2.338 2.338 0 0044.753 19zm-23.53 1.081h21.554v2.152H21.224v-2.152zm0 3.229h21.554v2.157H21.224V23.31zm0 3.233h21.554v2.158H21.224v-2.158zm24.788 6.286a1.257 1.257 0 01-1.258 1.258H19.248a1.256 1.256 0 01-1.258-1.258V21.34a1.253 1.253 0 011.258-1.258h.9v9.158c0 .297.24.538.538.538h22.629a.538.538 0 00.538-.538v-9.16h.9a1.254 1.254 0 011.257 1.258v11.49zm-19.292 4.942a.538.538 0 00-.72-.196l-1.543.875v-1.67a.538.538 0 10-1.076 0v1.67l-1.509-.88a.54.54 0 10-.538.935l1.509.88-1.509.88a.54.54 0 00.538.936l1.509-.88v1.845a.538.538 0 101.076 0V40.32l1.509.88a.54.54 0 00.538-.936l-1.509-.88 1.509-.88a.537.537 0 00.216-.734zm15.807 0a.543.543 0 00-.72-.196l-1.543.88V36.78a.538.538 0 10-1.076 0v1.67l-1.51-.88a.54.54 0 10-.537.935l1.508.88-1.508.88a.54.54 0 10.538.936l1.509-.88v1.845a.538.538 0 101.076 0V40.32l1.508.88a.543.543 0 00.543-.936l-1.508-.88 1.508-.88a.543.543 0 00.212-.734zm-7.906 4.402a.533.533 0 00-.714-.196l-1.55.88v-1.76a.538.538 0 10-1.075 0v1.76l-1.509-.88a.543.543 0 10-.543.935l1.509.88-1.51.88a.543.543 0 00.529.91l1.509-.88v1.76a.538.538 0 101.076 0v-1.76l1.508.88a.54.54 0 10.538-.935l-1.508-.88 1.508-.88a.538.538 0 00.232-.714z" fill="#fff"/><path d="M21.034 31.195a1.002 1.002 0 00-.503.151l-.136.111a1.53 1.53 0 00-.11.14.86.86 0 00-.08.152.824.824 0 00-.066.186 1.014 1.014 0 000 .176.9.9 0 10.885-.916h.01z" fill="#fff"/></svg>