<svg width="64" height="64" fill="none" xmlns="http://www.w3.org/2000/svg"><path d="M26.519 22.89v-1.157a.48.48 0 00.335-.136.463.463 0 00.138-.33V19.4c0-.371-.15-.727-.416-.99a1.43 1.43 0 00-1.004-.41h-3.786a1.43 1.43 0 00-1.003.41 1.39 1.39 0 00-.417.99v1.867c0 .123.05.242.139.33a.48.48 0 00.335.136h4.732v1.4c0 .156.08.302.21.389a5.82 5.82 0 011.465 1.373 8.158 8.158 0 01-3.42-.099 9.113 9.113 0 00-3.507-.162 5.843 5.843 0 011.256-1.112.465.465 0 00.21-.389v-.466h-.946v.222a6.732 6.732 0 00-2.03 2.29 6.702 6.702 0 00-.81 3.186v.449a1.38 1.38 0 00.416.99l.334.33-.334.33a1.381 1.381 0 00-.416.99v.626a1.38 1.38 0 00.416.99l.334.33-.334.33a1.38 1.38 0 00-.416.99v.627a1.38 1.38 0 00.416.99l.334.33-.334.33a1.381 1.381 0 00-.416.99v.627a1.38 1.38 0 00.416.99l.334.33-.334.33a1.381 1.381 0 00-.416.99v2.88c0 .494.2.969.555 1.319.355.35.836.546 1.338.547h7.572a1.91 1.91 0 001.338-.547c.355-.35.555-.825.555-1.32v-2.88a1.381 1.381 0 00-.415-.99l-.335-.33.335-.33a1.38 1.38 0 00.415-.99v-.626a1.381 1.381 0 00-.415-.99l-.335-.33.335-.33c.267-.262.416-.619.415-.99v-.627a1.381 1.381 0 00-.415-.99l-.335-.33.335-.33a1.38 1.38 0 00.415-.99v-.627a1.381 1.381 0 00-.415-.99l-.335-.33.335-.33a1.38 1.38 0 00.415-.99v-.448a6.725 6.725 0 00-2.84-5.476zm-5.206-3.49a.47.47 0 01.473-.467h3.786a.47.47 0 01.474.467v1.4h-4.733v-1.4zm7.099 9.413a.46.46 0 01-.139.33l-.53.524H20.84v.933h6.903l.53.523a.46.46 0 01.139.33v.627a.46.46 0 01-.139.33l-.53.523H20.84v.934h6.903l.53.523a.46.46 0 01.139.33v.627a.46.46 0 01-.139.33l-.53.523H20.84v.933h6.903l.53.524a.46.46 0 01.139.33v.627a.46.46 0 01-.139.33l-.53.523H20.84v.933h6.903l.53.523a.46.46 0 01.139.33v2.88c0 .248-.1.485-.278.66a.954.954 0 01-.669.274h-7.572a.954.954 0 01-.669-.274.927.927 0 01-.277-.66v-2.88a.46.46 0 01.138-.33l.67-.66a.464.464 0 000-.66l-.67-.66a.46.46 0 01-.138-.33v-.626a.46.46 0 01.138-.33l.67-.66a.464.464 0 000-.66l-.67-.66a.46.46 0 01-.138-.33v-.627a.46.46 0 01.138-.33l.67-.66a.464.464 0 000-.66l-.67-.66a.46.46 0 01-.138-.33v-.627a.46.46 0 01.138-.33l.67-.66a.464.464 0 000-.66l-.67-.66a.46.46 0 01-.138-.33v-.448c0-.916.22-1.82.64-2.636l.338-.074a8.143 8.143 0 013.673.047 9.09 9.09 0 003.922.092l.259-.05c.416.812.633 1.71.633 2.621v.448z" fill="#fff"/><path d="M20.111 41.246h.793v2.906h-.793v-2.906zm-.263-12.771v.088h1.069v-.088c0-.76.174-1.512.516-2.216l-.99-.337a5.832 5.832 0 00-.595 2.553zm22.671-5.585v-1.157a.476.476 0 00.334-.136.463.463 0 00.14-.33V19.4a1.398 1.398 0 00-.417-.99 1.43 1.43 0 00-1.004-.41h-3.786a1.43 1.43 0 00-1.003.41 1.39 1.39 0 00-.417.99v1.867c0 .123.05.242.139.33a.48.48 0 00.335.136h4.732v1.4c0 .156.08.302.21.389a5.82 5.82 0 011.465 1.373 8.158 8.158 0 01-3.42-.099 9.113 9.113 0 00-3.507-.162 5.843 5.843 0 011.255-1.112.465.465 0 00.211-.389v-.466h-.946v.222a6.732 6.732 0 00-2.03 2.29 6.702 6.702 0 00-.81 3.186v.449a1.38 1.38 0 00.416.99l.335.33-.335.33a1.381 1.381 0 00-.416.99v.626a1.38 1.38 0 00.416.99l.335.33-.335.33a1.38 1.38 0 00-.416.99v.627a1.38 1.38 0 00.416.99l.335.33-.335.33a1.381 1.381 0 00-.416.99v.627a1.38 1.38 0 00.416.99l.335.33-.335.33a1.381 1.381 0 00-.416.99v2.88c0 .494.2.969.555 1.319.355.35.836.546 1.338.547h7.572a1.91 1.91 0 001.338-.547 1.86 1.86 0 00.556-1.32v-2.88a1.381 1.381 0 00-.416-.99l-.335-.33.335-.33c.267-.262.416-.618.416-.99v-.626a1.381 1.381 0 00-.416-.99l-.335-.33.335-.33c.267-.262.416-.619.416-.99v-.627a1.381 1.381 0 00-.416-.99l-.335-.33.335-.33c.267-.262.416-.618.416-.99v-.627a1.381 1.381 0 00-.416-.99l-.335-.33.335-.33c.267-.262.416-.618.416-.99v-.448a6.725 6.725 0 00-2.84-5.476zm-5.206-3.49a.47.47 0 01.473-.467h3.786a.47.47 0 01.474.467v1.4h-4.733v-1.4zm7.099 9.413a.46.46 0 01-.139.33l-.53.524H36.84v.933h6.903l.53.523a.46.46 0 01.139.33v.627a.46.46 0 01-.139.33l-.53.523H36.84v.934h6.903l.53.523a.46.46 0 01.139.33v.627a.46.46 0 01-.139.33l-.53.523H36.84v.933h6.903l.53.524a.46.46 0 01.139.33v.627a.46.46 0 01-.139.33l-.53.523H36.84v.933h6.903l.53.523a.46.46 0 01.139.33v2.88c0 .248-.1.485-.278.66a.954.954 0 01-.669.274h-7.572a.954.954 0 01-.669-.274.927.927 0 01-.277-.66v-2.88a.46.46 0 01.138-.33l.67-.66a.464.464 0 000-.66l-.67-.66a.46.46 0 01-.138-.33v-.626a.46.46 0 01.138-.33l.67-.66a.464.464 0 000-.66l-.67-.66a.46.46 0 01-.138-.33v-.627a.46.46 0 01.138-.33l.67-.66a.464.464 0 000-.66l-.67-.66a.46.46 0 01-.138-.33v-.627a.46.46 0 01.138-.33l.67-.66a.464.464 0 000-.66l-.67-.66a.46.46 0 01-.138-.33v-.448c0-.916.22-1.82.64-2.636l.338-.074a8.143 8.143 0 013.673.047 9.09 9.09 0 003.922.092l.258-.05c.417.812.634 1.71.634 2.621v.448z" fill="#fff"/><path d="M36.117 41.242h.793v2.906h-.793v-2.906zm-.265-12.762v.087h1.069v-.088c0-.76.174-1.512.516-2.216l-.991-.337a5.832 5.832 0 00-.594 2.553z" fill="#fff"/></svg>