<svg width="40" height="40" fill="none" xmlns="http://www.w3.org/2000/svg"><path d="M19.915 23.731v-9.67a.39.39 0 00-.39-.39.39.39 0 00-.39.39v9.67a1.902 1.902 0 00-1.512 1.86c0 1.048.854 1.901 1.902 1.901a1.905 1.905 0 001.902-1.902 1.906 1.906 0 00-1.512-1.859zm-.39 2.982a1.123 1.123 0 110-2.244 1.123 1.123 0 010 2.244z" fill="#FFCD1A"/><path d="M21.51 22.238v-10.25A1.991 1.991 0 0019.522 10a1.991 1.991 0 00-1.987 1.988v10.25a3.88 3.88 0 00-1.91 3.352 3.904 3.904 0 003.897 3.898 3.904 3.904 0 003.898-3.898 3.871 3.871 0 00-1.91-3.352zm-1.984 6.47a3.122 3.122 0 01-3.118-3.118c0-1.173.651-2.237 1.7-2.775a.389.389 0 00.21-.347v-10.48a1.21 1.21 0 012.417 0v10.484c0 .148.082.28.21.347a3.109 3.109 0 011.7 2.775c0 1.715-1.4 3.114-3.119 3.114zm4.712-16.692H22.58a.39.39 0 00-.39.39.39.39 0 00.39.389h1.657a.39.39 0 00.39-.39.39.39 0 00-.39-.39zm-1.657 2.728h1.103a.39.39 0 00.39-.39.39.39 0 00-.39-.39h-1.103a.39.39 0 00-.39.39c0 .215.176.39.39.39z" fill="#FFCD1A"/><path d="M24.238 15.91H22.58a.39.39 0 00-.39.39c0 .214.176.39.39.39h1.657a.39.39 0 00.39-.39.39.39 0 00-.39-.39zm-1.657 2.733h1.103a.39.39 0 00.39-.39.39.39 0 00-.39-.39h-1.103a.39.39 0 00-.39.39c0 .214.176.39.39.39zm1.657 1.166H22.58a.39.39 0 00-.39.39.39.39 0 00.39.389h1.657a.39.39 0 00.39-.39.39.39 0 00-.39-.39z" fill="#FFCD1A"/></svg>