<svg width="70" height="70" fill="none" xmlns="http://www.w3.org/2000/svg"><path d="M19.04 0H0v19.04h19.04V0zm5.6 39.198a4.48 4.48 0 100-8.96 4.48 4.48 0 000 8.96zM4.48 49.28a4.48 4.48 0 100-8.96 4.48 4.48 0 000 8.96zm10.08 20.16a4.48 4.48 0 100-8.96 4.48 4.48 0 000 8.96zm20.16-10.082a4.48 4.48 0 100-8.96 4.48 4.48 0 000 8.96zM4.48 29.12a4.48 4.48 0 100-8.96 4.48 4.48 0 000 8.96zM24.64 8.96a4.48 4.48 0 100-8.96 4.48 4.48 0 000 8.96zm40.32 40.32a4.48 4.48 0 100-8.96 4.48 4.48 0 000 8.96zM44.8 69.44a4.48 4.48 0 100-8.96 4.48 4.48 0 000 8.96zm14.56-59.362H40.32v19.04h19.04v-19.04zM29.12 40.32H10.08v19.04h19.04V40.32zM70 49.84H49.84V70H70V49.84zM54.88 8.96a4.48 4.48 0 100-8.96 4.48 4.48 0 000 8.96zM34.72 19.038a4.48 4.48 0 100-8.96 4.48 4.48 0 000 8.96zm10.08 20.16a4.48 4.48 0 100-8.96 4.48 4.48 0 000 8.96zM64.96 29.12a4.48 4.48 0 100-8.96 4.48 4.48 0 000 8.96z" fill="#fff"/></svg>