<svg width="48" height="48" fill="none" xmlns="http://www.w3.org/2000/svg"><path d="M22.246 23.512v-3.07c0-.648-.249-1.269-.691-1.727a2.321 2.321 0 00-1.67-.715h-4.992c-.627 0-1.227.257-1.67.715a2.484 2.484 0 00-.692 1.727v3.07a2.39 2.39 0 00-.934.895c-.226.381-.346.82-.347 1.267v3.838c0 .27.211.488.472.488a.48.48 0 00.472-.488v-1.186h10.39v1.186c0 .27.21.488.471.488a.48.48 0 00.473-.488v-3.838a2.498 2.498 0 00-.347-1.267 2.39 2.39 0 00-.935-.895zm-8.77-.284v-2.786c0-.389.15-.761.415-1.036.266-.275.626-.43 1.002-.43h4.992c.376 0 .736.155 1.002.43s.415.647.415 1.036v2.79h-1.695v-.837c0-.388-.15-.76-.415-1.036a1.393 1.393 0 00-1.002-.429h-1.606c-.375 0-.736.154-1.001.43a1.49 1.49 0 00-.415 1.035v.837h-1.692v-.003zm5.186 0h-2.55v-.837a.48.48 0 01.472-.488h1.606c.125 0 .245.051.334.143a.497.497 0 01.138.345v.838zm-6.467 2.446c0-.389.15-.761.415-1.036a1.394 1.394 0 011.002-.429h7.555c.376 0 .736.154 1.002.43.265.274.415.646.415 1.035v1.675h-10.39v-1.675zm23.273-2.162v-3.07c0-.648-.248-1.269-.691-1.727a2.321 2.321 0 00-1.67-.715h-4.992c-.626 0-1.227.257-1.67.715a2.484 2.484 0 00-.691 1.727v3.07a2.387 2.387 0 00-.934.893c-.226.38-.346.818-.348 1.265v3.838c0 .27.212.488.473.488a.48.48 0 00.472-.488v-1.182h10.389v1.186c0 .27.211.488.472.488a.48.48 0 00.472-.488v-3.838c0-.447-.12-.886-.347-1.267a2.387 2.387 0 00-.934-.895zm-8.77-.284v-2.786c0-.389.15-.761.416-1.036a1.39 1.39 0 011.001-.43h4.993c.375 0 .736.155 1.001.43.266.275.415.647.415 1.036v2.79H32.83v-.837c0-.388-.15-.76-.415-1.036a1.392 1.392 0 00-1.002-.429h-1.605a1.39 1.39 0 00-1.002.43 1.49 1.49 0 00-.415 1.035v.837H26.7v-.004zm5.188 0h-2.55v-.837a.48.48 0 01.472-.488h1.605c.125 0 .245.051.334.143a.496.496 0 01.139.345v.837zm-6.47 2.442c0-.388.15-.761.416-1.036a1.394 1.394 0 011.002-.429h7.555c.376 0 .736.155 1.002.43.265.274.415.647.415 1.035v1.675h-10.39V25.67z" fill="#DEE4D1"/></svg>