<svg width="40" height="40" fill="none" xmlns="http://www.w3.org/2000/svg"><g clip-path="url(#clip0_4913_9883)"><path d="M28.929 25.625c.214 0 .357-.14.357-.352V24.22h.357c.214 0 .357-.14.357-.352v-3.515c0-.844-.607-1.547-1.429-1.723v-1.477c0-1.511-1.285-2.777-2.821-2.777h-11.5c-1.536 0-2.821 1.266-2.821 2.777v1.477c-.822.176-1.429.879-1.429 1.723v3.515c0 .211.143.352.357.352h.357v1.054c0 .211.143.352.357.352.215 0 .358-.14.358-.352V24.22H28.57v1.054c0 .211.143.352.358.352zm-16.786-8.473c0-1.125.964-2.074 2.107-2.074h11.464c1.179 0 2.143.95 2.143 2.074v1.442h-1.464c-.107-.809-.822-1.407-1.643-1.407h-1.643c-.821 0-1.536.598-1.643 1.407h-2.893c-.107-.809-.821-1.407-1.642-1.407h-1.643c-.822 0-1.536.598-1.643 1.407h-1.5v-1.442zm13.536 1.442h-3.5a.952.952 0 01.928-.703h1.643c.429 0 .821.28.929.703zm-7.858 0h-3.5a.952.952 0 01.929-.703h1.643a.95.95 0 01.928.703zm-7.107 1.758c0-.598.465-1.055 1.072-1.055h16.428c.607 0 1.072.457 1.072 1.055v3.164H10.714v-3.164z" fill="#fff"/></g><defs><clipPath id="clip0_4913_9883"><path fill="#fff" transform="translate(10 14.375)" d="M0 0h20v11.25H0z"/></clipPath></defs></svg>