<svg width="40" height="40" fill="none" xmlns="http://www.w3.org/2000/svg"><path d="M20.17 10.065h-.023a.285.285 0 00-.082-.039.248.248 0 00-.073-.026h-.164a.249.249 0 00-.073.026.285.285 0 00-.082.039h-.022C19.379 10.272 13 15.17 13 22.08a6.91 6.91 0 1013.82 0c0-6.91-6.379-11.808-6.65-12.015zm-.26 18.061a6.047 6.047 0 01-6.046-6.046c0-5.705 4.876-10.115 6.046-11.1 1.188.972 6.046 5.381 6.046 11.1a6.046 6.046 0 01-6.046 6.046zm2.51-7.774l-4.406 4.405a.432.432 0 01-.307.126.432.432 0 01-.306-.739l4.405-4.4a.432.432 0 11.613.608zm-3.318 1.089a1.494 1.494 0 000-2.112 1.525 1.525 0 00-2.111 0 1.493 1.493 0 002.111 2.112zm-1.684-1.089a.643.643 0 01.181-.432.635.635 0 01.882-.008c.12.115.19.274.194.44a.622.622 0 01-.186.432.643.643 0 01-.89 0 .635.635 0 01-.18-.432zm3.3 2.67a1.495 1.495 0 002.111 2.115 1.494 1.494 0 000-2.111 1.534 1.534 0 00-2.111.008v-.013zm1.503 1.502a.643.643 0 01-.89 0 .622.622 0 01-.186-.432.635.635 0 01.63-.63.627.627 0 01.613.617.636.636 0 01-.167.458v-.013z" fill="#FFCD1A"/></svg>