<svg width="40" height="40" fill="none" xmlns="http://www.w3.org/2000/svg"><path d="M29.098 18.604a17.257 17.257 0 00-.113-1.145 1.158 1.158 0 00-.03-.131 1.93 1.93 0 01-.042-.188.3.3 0 00-.03-.213.299.299 0 00-.502 0c-.063.108-1.533 2.613-3.258 1.752-1.614-.807-4.088-.897-5.146-.897a6.26 6.26 0 00.25-.58 3.951 3.951 0 00-.442-3.586 3.885 3.885 0 00-7.092 1.638 4.392 4.392 0 00-.018.834c-.248.155-.962.484-2.328.23a.299.299 0 00-.343.34c0 .072.316 1.692 3.586 1.692h.05c.058.066.114.128.177.191.182.147.29.365.299.598a.896.896 0 01-.389.619 2.903 2.903 0 00-.896 1.533 3.886 3.886 0 001.673 4.232c1.925 1.246 4.669 1.39 5.813 1.39h.526a12.781 12.781 0 004.128-.807 7.245 7.245 0 003.263-2.607c.314-.5.538-1.05.66-1.628.229-1.073.297-2.174.204-3.267zm-18.257-1.62a3.657 3.657 0 001.921-.275c.092.374.242.731.445 1.058-1.39-.065-2.056-.466-2.367-.783zM28.33 21.74c-.108.511-.304 1-.58 1.444a6.629 6.629 0 01-2.988 2.364 12.28 12.28 0 01-3.942.765c-.036 0-3.715.191-5.978-1.285a3.363 3.363 0 01-1.425-3.587 2.31 2.31 0 01.717-1.234c.338-.244.556-.622.598-1.037a1.374 1.374 0 00-.467-1.022 3.926 3.926 0 01-.239-.266v-.018a3.078 3.078 0 01-.735-1.53 3.821 3.821 0 010-1.01 3.288 3.288 0 013.24-2.896h.131a3.3 3.3 0 012.64 1.494 3.38 3.38 0 01.379 3.072 6.184 6.184 0 01-.445.933.298.298 0 000 .299.28.28 0 00.26.137c.032 0 3.446-.128 5.379.834 1.587.792 2.926-.508 3.586-1.351.03.257.051.523.07.789.086 1.04.018 2.086-.201 3.105z" fill="#FFCD1A"/><path d="M25.084 20.69c-.014 0-1.634.94-3.012 0-.855-.576-1.62-.836-2.337-.8a2.206 2.206 0 00-1.734.914 2.045 2.045 0 00-.227 1.86c.38 1.15 1.623 1.825 2.618 1.969.24.033.482.05.724.05 1.354 0 3.458-.54 4.387-3.648a.298.298 0 00-.099-.3.299.299 0 00-.32-.044zm-4.605 3.357c-.849-.122-1.862-.702-2.149-1.578a1.476 1.476 0 01.15-1.327c.3-.41.776-.655 1.285-.663h.101a3.459 3.459 0 011.883.69c.892.57 2.002.68 2.989.299-1.043 2.606-3.078 2.747-4.26 2.58zm-4.977-10.004a1.046 1.046 0 10-.006 2.093 1.046 1.046 0 00.006-2.093zm0 1.51a.466.466 0 11.024-.933.466.466 0 01-.024.932z" fill="#FFCD1A"/></svg>