<svg width="48" height="48" fill="none" xmlns="http://www.w3.org/2000/svg"><path d="M26.232 23.293c0 .209-.008.418-.026.627-.007.084 0 .198-.029.278.012-.087.014-.098.005-.033l-.012.081a7.362 7.362 0 01-.4 1.54 12.194 12.194 0 01-.075.192 7.738 7.738 0 01-.545 1.049c-.129.209-.334.426-.334.684l.078-.294c-.058.082-.114.167-.178.245.1-.124-.02.025-.039.049a8.821 8.821 0 01-.505.586 9.138 9.138 0 01-.858.801h.805a9.375 9.375 0 01-1.428-1.471c-.09-.118.053.073-.01-.013-.067-.096-.137-.19-.203-.287a8.16 8.16 0 01-.713-1.29l-.036-.082a7.947 7.947 0 01-.31-.944 7.59 7.59 0 01-.168-.856 7.509 7.509 0 01-.005-1.687l.01-.085a.693.693 0 00-.003.027c0-.068.021-.145.032-.212a7.53 7.53 0 01.39-1.432c.021-.054.045-.108.065-.163-.047.133-.026.062-.013.031l.047-.107a7.89 7.89 0 01.724-1.297 7.684 7.684 0 01.206-.29l-.041.055c.087-.097.163-.209.247-.31a9.309 9.309 0 011.209-1.199h-.805a9.25 9.25 0 011.404 1.441l.045.06a.584.584 0 01-.021-.03l.088.122a8.26 8.26 0 01.814 1.413l.066.152c.03.07-.044-.109-.015-.037l.034.086a7.704 7.704 0 01.439 1.632c.004.025.012.059.012.085 0-.152-.002-.02.002.016.034.287.05.577.05.867.001.305.261.597.57.583a.586.586 0 00.569-.584c-.006-2.06-.811-4.005-2.134-5.54a9.328 9.328 0 00-1.118-1.09c-.26-.215-.544-.217-.805 0-1.587 1.314-2.794 3.186-3.134 5.268a8.294 8.294 0 001.119 5.682 9.425 9.425 0 002.015 2.31c.116.097.245.179.402.172a.65.65 0 00.403-.171 9.144 9.144 0 001.626-1.734c.107-.145.21-.285.21-.479a70.62 70.62 0 00-.078.295 8.337 8.337 0 001.494-4.712c0-.305-.263-.597-.57-.583a.587.587 0 00-.569.583z" fill="#fff"/><path d="M32.833 26.125a9.092 9.092 0 01-.1.274l-.05.127c-.037.095.011-.02.014-.033-.008.03-.025.06-.038.089a7.724 7.724 0 01-.911 1.603c-.06.082.077-.1-.01.011a6.848 6.848 0 01-.543.618 6.296 6.296 0 01-.402.37l-.1.082c-.06.05.084-.065.021-.018l-.047.036a5.687 5.687 0 01-1.05.63l-.054.025c-.071.033.1-.041.027-.012l-.148.06c-.362.14-.738.242-1.12.302-.018.002-.056.003-.074.01.01-.004.142-.017.041-.006l-.129.014a5.489 5.489 0 01-1.124-.007l-.128-.015c-.078-.01.118.018.04.005l-.09-.014a6.422 6.422 0 01-1.32-.376c-.038-.016-.198-.103-.059-.024-.095-.054-.2-.092-.298-.14a7.811 7.811 0 01-1.167-.723v1.007l.008-.006a67.54 67.54 0 01-.287.08c2.305-.058 4.613-.994 6.084-2.865a8.108 8.108 0 001.195-2.111l-.7.407a6.26 6.26 0 011.296.384c.032.014.125.039-.007-.003.031.01.062.027.092.04.494.226.96.51 1.398.837.241.18.645.05.778-.21.157-.302.054-.605-.204-.797-.902-.673-1.949-1.174-3.05-1.376-.33-.06-.579.09-.701.407-.015.038-.027.081-.046.117.072-.135.006-.015-.006.015a7.547 7.547 0 01-.332.673 7.232 7.232 0 01-.239.396c-.082.126-.188.244-.261.375.075-.135.031-.042.004-.007a10.174 10.174 0 01-.198.243 6.654 6.654 0 01-.853.836c-.026.022-.053.042-.078.064.126-.11.038-.03.008-.008a6.882 6.882 0 01-1.356.809c-.03.014-.063.026-.092.04a8.61 8.61 0 01-.368.14 7.68 7.68 0 01-1.43.354c-.016.003-.132.018-.028.005.107-.014-.044.005-.063.007a8.327 8.327 0 01-.454.043c-.21.014-.51-.024-.684.103-.168.122-.282.284-.282.504 0 .221.115.38.282.504 1.358 1.01 3.066 1.626 4.757 1.45a6.126 6.126 0 002.537-.835 6.653 6.653 0 001.82-1.629 8.994 8.994 0 001.375-2.572c.1-.288-.112-.65-.397-.717-.318-.074-.592.1-.7.408z" fill="#fff"/><path d="M23.44 29.013a7.92 7.92 0 01-1.267.772 6.023 6.023 0 01-.146.068l-.055.024a7.155 7.155 0 01-.531.194 6.259 6.259 0 01-.858.207l-.065.01c-.082.015.106-.012.023-.003l-.171.02a5.875 5.875 0 01-1.21-.012l-.064-.01a6.334 6.334 0 01-.463-.097 5.395 5.395 0 01-.731-.243c-.018-.008-.037-.018-.055-.023.014.004.119.053.027.01a5.557 5.557 0 01-1.101-.659c-.015-.01-.031-.027-.048-.035.109.057.04.032.007.004a6.2 6.2 0 01-.902-.903 9.186 9.186 0 01-.08-.098l-.044-.057c-.047-.06.007.01.023.031a9.07 9.07 0 01-.648-1.03 8.501 8.501 0 01-.262-.548l-.06-.141c.069.156-.009-.024-.022-.058a9.855 9.855 0 01-.114-.311l-.261.658a7.68 7.68 0 011.387-.832c.029-.013.065-.024.091-.04-.027.018-.095.04-.026.011l.184-.074a6.485 6.485 0 011.122-.319l-.7-.407c.473 1.222 1.213 2.33 2.218 3.156a7.83 7.83 0 003.1 1.558c.643.159 1.32.258 1.982.258a67.54 67.54 0 00-.287-.08.144.144 0 01.008.006c.246.172.642.056.778-.21a.606.606 0 00-.204-.797c-.162-.113-.394-.086-.582-.096a8.686 8.686 0 01-.42-.033c-.07-.006-.138-.015-.208-.023-.126-.015.14.02.014.002l-.068-.01a8.187 8.187 0 01-1.202-.28 7.44 7.44 0 01-.54-.195l-.094-.04c-.094-.038.127.058-.019-.007a6.983 6.983 0 01-1.356-.802c-.026-.02-.052-.044-.08-.062.136.087.042.033.01.007a6.937 6.937 0 01-.456-.406 6.811 6.811 0 01-.597-.665c-.028-.036-.1-.167-.017-.02-.04-.07-.098-.134-.144-.2a7.083 7.083 0 01-.67-1.203c-.016-.038-.035-.076-.048-.115.055.155-.009-.024-.02-.054-.122-.313-.369-.469-.7-.407-1.095.205-2.135.704-3.03 1.372-.194.144-.352.401-.262.658.538 1.548 1.44 2.94 2.751 3.904 1.482 1.09 3.39 1.408 5.147.95a7.59 7.59 0 002.591-1.269.624.624 0 00.262-.348.608.608 0 00-.057-.45c-.154-.243-.521-.4-.78-.208z" fill="#fff"/><path d="M29.917 24.808c-.014.038-.026.08-.045.116.071-.135.006-.015-.007.015a7.522 7.522 0 01-.332.674 7.193 7.193 0 01-.239.395c-.081.126-.188.245-.261.375.075-.135.031-.041.004-.006a12.293 12.293 0 01-.175.216 6.83 6.83 0 01-.875.863c-.026.021-.054.041-.079.063.112-.098.064-.05.035-.028-.053.04-.107.081-.162.12a6.885 6.885 0 01-1.282.737c-.113.05.126-.052.012-.006a7.717 7.717 0 01-1.807.507c-.034.006-.07.009-.103.016.168-.036.052-.007.013-.002a7.217 7.217 0 01-.897.064l.402.996c.937-.802 1.752-1.745 2.323-2.857a8.256 8.256 0 00.926-3.992 8.139 8.139 0 00-.426-2.38l-.262.659c.3-.21.613-.396.94-.556l.239-.112a2.053 2.053 0 00.037-.016 6.863 6.863 0 01.643-.232c.355-.11.719-.195 1.086-.254l.115-.017a2.914 2.914 0 00.043-.005 8.08 8.08 0 01.866-.062l-.549-.428a10.941 10.941 0 01.22 1.04c.01.057.017.115.026.172.01.066.008.058-.003-.025l.011.086c.054.455.075.914.062 1.372a8.71 8.71 0 01-.047.674c-.003.034-.02.227-.005.053-.004.055-.015.11-.023.165a7.924 7.924 0 01-.423 1.6c-.051.132-.01.332.057.449a.582.582 0 00.34.268c.327.076.584-.102.7-.407.543-1.425.64-2.975.437-4.48a10.538 10.538 0 00-.255-1.277.58.58 0 00-.549-.428c-1.602.036-3.211.48-4.543 1.413-.198.139-.347.405-.261.658a7.73 7.73 0 01.328 1.335c.027.163.036.33.046.495a7.526 7.526 0 01-.027 1.237l-.014.128c-.017.148.02-.131-.003.015a7.603 7.603 0 01-.423 1.62l-.04.104c-.049.123.053-.124 0-.002a8.026 8.026 0 01-.944 1.655l-.022.031.02-.027c-.015.04-.065.085-.092.12a9.964 9.964 0 01-1.36 1.383c-.172.148-.198.44-.117.637a.571.571 0 00.52.358c.59 0 1.19-.083 1.765-.208a8.244 8.244 0 001.684-.572 7.242 7.242 0 002.655-2.084 8.112 8.112 0 001.194-2.112c.052-.131.01-.332-.057-.449a.581.581 0 00-.34-.268c-.328-.076-.582.103-.7.408z" fill="#fff"/><path d="M23.717 28.927a8.92 8.92 0 01-.633-.036 9.498 9.498 0 01-.295-.032.382.382 0 00.048.006l-.069-.01a7.861 7.861 0 01-1.76-.477c-.041-.017-.21-.103-.05-.02-.168-.088-.345-.16-.514-.25a6.964 6.964 0 01-.877-.558c-.035-.027-.177-.153-.044-.033-.297-.268-.596-.518-.862-.82a7.173 7.173 0 01-.286-.348c-.021-.027-.06-.088.026.034l-.063-.085a7.023 7.023 0 01-.717-1.242l-.075-.171c-.032-.075.04.1.01.024l-.038-.097a7.695 7.695 0 01-.44-1.702c.015.092-.003-.031-.005-.05a8.957 8.957 0 01.015-2.174.467.467 0 00-.003.022c.002-.044.012-.089.019-.132a10.658 10.658 0 01.23-1.105l-.548.428a9.038 9.038 0 01.866.062l.078.01-.036-.005.116.018a7.858 7.858 0 011.728.486 3.81 3.81 0 01.02.008c.086.04.172.078.257.12.326.16.64.346.939.556l-.262-.659a8.16 8.16 0 00-.266 4.21c.262 1.318.871 2.532 1.686 3.58a9.174 9.174 0 001.403 1.438c.121.1.24.171.402.171.14 0 .307-.063.403-.17.19-.213.247-.621 0-.825a9.238 9.238 0 01-1.364-1.39l-.076-.098a8.795 8.795 0 01-.26-.373 8.176 8.176 0 01-.63-1.147 2.82 2.82 0 01-.05-.114c-.063-.14.046.117-.007-.015a7.508 7.508 0 01-.477-1.777c-.016-.105.002.005.002.022-.001-.04-.01-.08-.014-.12a7.444 7.444 0 01-.013-1.446c.009-.1.016-.201.032-.3a7.655 7.655 0 01.328-1.335c.087-.255-.062-.519-.262-.659-1.331-.933-2.94-1.376-4.543-1.413a.58.58 0 00-.548.428c-.575 2.182-.485 4.556.544 6.584.852 1.678 2.304 2.927 4.02 3.595.927.36 1.926.531 2.916.554a.582.582 0 00.57-.583c-.016-.323-.252-.578-.571-.585z" fill="#fff"/></svg>