<svg width="48" height="48" fill="none" xmlns="http://www.w3.org/2000/svg"><path d="M26.418 16.183a.494.494 0 00-.494 0l-6.049 3.245h-3.288c-.877 0-1.588.71-1.588 1.587v6c0 .877.71 1.587 1.588 1.587h3.288l6.057 3.255a.494.494 0 00.74-.425V16.608a.494.494 0 00-.254-.424zm-6.91 11.432h-2.922a.6.6 0 01-.6-.6v-6a.6.6 0 01.6-.6h2.921v7.2zm6.162 2.982l-5.185-2.782v-7.6l5.185-2.783v13.165zm6.836-7.07h-1.867v-1.892a.494.494 0 10-.989 0v1.892h-1.867a.494.494 0 000 .989h1.867v1.893a.494.494 0 00.989 0v-1.893h1.867a.494.494 0 000-.988z" fill="#fff"/></svg>