<svg width="40" height="40" fill="none" xmlns="http://www.w3.org/2000/svg"><path d="M17.4 26.268c.429 0 .857-.2 1.143-.543.286-.342.372-.8.286-1.228l-.543-2.457a3.636 3.636 0 00-3.543-2.83 3.666 3.666 0 00-3.543 2.83l-.543 2.457c-.086.428 0 .886.286 1.229.285.342.685.542 1.142.542H17.4zm-6.172-1.657l.543-2.457a3.053 3.053 0 012.972-2.4c1.428 0 2.657 1 2.971 2.4l.543 2.457a.867.867 0 01-.171.743c-.172.2-.429.343-.686.343h-5.314a.852.852 0 01-.686-.343c-.172-.2-.229-.457-.172-.743zm1.172-9.143a2.354 2.354 0 002.343 2.343 2.354 2.354 0 002.343-2.343 2.354 2.354 0 00-2.343-2.343 2.354 2.354 0 00-2.343 2.343zm4.115 0c0 .971-.8 1.772-1.772 1.772a1.78 1.78 0 01-1.771-1.772c0-.971.8-1.771 1.771-1.771.971 0 1.772.8 1.772 1.771zm10.863 10.8c.429 0 .857-.2 1.143-.543.286-.342.371-.8.286-1.228l-.543-2.457a3.636 3.636 0 00-3.543-2.83 3.666 3.666 0 00-3.543 2.83l-.543 2.457c-.086.428 0 .886.285 1.229.286.342.686.542 1.143.542h5.315zm-6.172-1.657l.543-2.457a3.053 3.053 0 012.972-2.4c1.428 0 2.657 1 2.971 2.4l.543 2.457a.866.866 0 01-.171.743c-.172.2-.429.343-.686.343h-5.314a.852.852 0 01-.686-.343c-.172-.2-.229-.457-.172-.743zm1.172-9.143a2.354 2.354 0 002.343 2.343 2.354 2.354 0 002.343-2.343 2.354 2.354 0 00-2.343-2.343 2.354 2.354 0 00-2.343 2.343zm4.114 0c0 .971-.8 1.772-1.771 1.772a1.78 1.78 0 01-1.771-1.772c0-.971.8-1.771 1.771-1.771.971 0 1.771.8 1.771 1.771z" fill="#fff"/></svg>