<svg width="64" height="64" fill="none" xmlns="http://www.w3.org/2000/svg"><path d="M44.644 28.462a4.345 4.345 0 00-1.902.465c.15-.729.225-1.47.224-2.213a.535.535 0 00-.534-.534h-21.04a.534.534 0 00-.534.534 10.944 10.944 0 002.671 7.225 6.889 6.889 0 00-5.092 4.035 4.991 4.991 0 00-2.432 3.394.534.534 0 00.144.443l2.672 2.672c.167.164.42.2.626.091l3.473-1.881 3.506-.727h4.618l3.462.722 3.485 1.892a.535.535 0 00.625-.091l2.672-2.672a.535.535 0 00.15-.45 4.99 4.99 0 00-2.421-3.382 7.402 7.402 0 00-1.235-1.919c.316-.194.62-.404.914-.63l.171-.14c1.069-.785 2.213-.534 3.549-.261.728.18 1.473.285 2.223.31a3.442 3.442 0 100-6.883h.005zM19.276 43.468l-2.202-2.202a3.993 3.993 0 011.753-2.325l3.068 3.1-2.619 1.427zm3.74-1.849l-3.484-3.474a5.83 5.83 0 014.655-3.27l1.545 6.172-2.715.572zm7.702-.7h-3.933l-1.63-6.536a4.243 4.243 0 013.559-1.94 4.563 4.563 0 013.607 1.946l-1.603 6.53zm9.657.348l-2.197 2.196-2.624-1.422 3.09-3.088h-.001a3.975 3.975 0 011.71 2.313h.022zm-2.41-3.122l-3.463 3.474-2.753-.572 1.54-6.162a5.815 5.815 0 014.654 3.26h.022zm-.947-2.848a7.373 7.373 0 00-3.8-1.507 5.563 5.563 0 00-4.483-2.416 5.306 5.306 0 00-4.179 2.052 9.902 9.902 0 01-2.619-6.199H41.93a9.964 9.964 0 01-.727 3.25 9.85 9.85 0 01-4.206 4.82h.022zm7.664-1.031a9.751 9.751 0 01-2.004-.29 9.888 9.888 0 00-2.17-.293c.7-.84 1.267-1.78 1.684-2.79a2.837 2.837 0 012.496-1.405 2.388 2.388 0 110 4.772l-.006.006zM30.969 18.677c-.759.62-1.7 1.406-1.7 3.03 0 2.213 2.138 3.207 3.25 3.41h.101a.537.537 0 00.097-1.069c-.097 0-2.379-.47-2.379-2.357 0-1.154.593-1.64 1.294-2.207.7-.566 1.34-1.069 1.34-2.137a2.2 2.2 0 00-.635-1.647 2.849 2.849 0 00-1.903-.7.534.534 0 000 1.069c.423-.006.834.134 1.165.396.224.236.339.556.316.881.01.524-.331.834-.946 1.331z" fill="#fff"/></svg>