<?xml version="1.0" encoding="utf-8"?><svg xmlns="http://www.w3.org/2000/svg" xmlns:xlink="http://www.w3.org/1999/xlink"><symbol viewBox="0 0 40 40" id="icon-area" xmlns="http://www.w3.org/2000/svg"><path d="M27.176 27.5a.357.357 0 00.324-.358v-3.805a.357.357 0 10-.714 0v3.448h-3.454a.357.357 0 100 .715h3.844zm-10.474 0a.358.358 0 10-.033-.715h-3.455v-3.448a.357.357 0 10-.714 0v3.805c0 .198.16.358.357.358H16.702zm10.48-10.469a.357.357 0 00.318-.363v-3.81a.357.357 0 00-.357-.358H23.33a.357.357 0 100 .714h3.455v3.454a.357.357 0 00.396.363zm-14.286 0a.357.357 0 00.318-.363v-3.454h3.454a.357.357 0 100-.714h-3.81a.357.357 0 00-.358.357v3.811a.357.357 0 00.396.363z"/></symbol><symbol viewBox="0 0 48 48" id="icon-arrow-next" xmlns="http://www.w3.org/2000/svg"><path d="M32.354 24.354a.5.5 0 000-.708l-3.182-3.181a.5.5 0 10-.707.707L31.293 24l-2.828 2.828a.5.5 0 10.707.707l3.182-3.181zM16 24.5h16v-1H16v1z"/></symbol><symbol viewBox="0 0 48 48" id="icon-arrow-prev" xmlns="http://www.w3.org/2000/svg"><path d="M15.646 23.646a.5.5 0 000 .708l3.182 3.181a.5.5 0 10.707-.707L16.707 24l2.828-2.828a.5.5 0 10-.707-.707l-3.182 3.181zM32 23.5H16v1h16v-1z"/></symbol><symbol viewBox="0 0 48 48" id="icon-arrow-top" xmlns="http://www.w3.org/2000/svg"><path d="M30.157 18.343a.5.5 0 00-.5-.5h-4.5a.5.5 0 100 1h4v4a.5.5 0 101 0v-4.5zM18.697 30.01L30.01 18.696l-.707-.707-11.314 11.314.707.707z"/></symbol><symbol viewBox="0 0 70 70" id="icon-banquet" xmlns="http://www.w3.org/2000/svg"><path d="M19.04 0H0v19.04h19.04V0zM24.64 39.198a4.48 4.48 0 100-8.96 4.48 4.48 0 000 8.96zM4.48 49.28a4.48 4.48 0 100-8.96 4.48 4.48 0 000 8.96zM14.56 69.44a4.48 4.48 0 100-8.96 4.48 4.48 0 000 8.96zM34.72 59.358a4.48 4.48 0 100-8.96 4.48 4.48 0 000 8.96zM4.48 29.12a4.48 4.48 0 100-8.96 4.48 4.48 0 000 8.96zM24.64 8.96a4.48 4.48 0 100-8.96 4.48 4.48 0 000 8.96zM64.96 49.28a4.48 4.48 0 100-8.96 4.48 4.48 0 000 8.96zM44.8 69.44a4.48 4.48 0 100-8.96 4.48 4.48 0 000 8.96zM59.36 10.078H40.32v19.04h19.04v-19.04zM29.12 40.32H10.08v19.04h19.04V40.32zM70 49.84H49.84V70H70V49.84zM54.88 8.96a4.48 4.48 0 100-8.96 4.48 4.48 0 000 8.96zM34.72 19.038a4.48 4.48 0 100-8.96 4.48 4.48 0 000 8.96zM44.8 39.198a4.48 4.48 0 100-8.96 4.48 4.48 0 000 8.96zM64.96 29.12a4.48 4.48 0 100-8.96 4.48 4.48 0 000 8.96z"/></symbol><symbol viewBox="0 0 64 64" id="icon-bath" xmlns="http://www.w3.org/2000/svg"><path d="M45.276 40.845c0-.008.003-.014.003-.021a.534.534 0 00-.05-.183c-.007-.013-.016-.023-.023-.035a.514.514 0 00-.106-.127c-.01-.01-.014-.02-.022-.028-.01-.007-.022-.008-.032-.014a.503.503 0 00-.141-.063c-.019-.006-.036-.016-.056-.019l-.012-.003-6.147-.84V23.354c0-.952-.44-1.84-1.192-2.419-.477-.397-1.147-.713-1.936-.93V16.11h-.046C35.515 15.291 34.18 15 33.037 15c-1.144 0-2.478.291-2.478 1.111h-.046v3.892c-.773.215-1.433.522-1.892.895a3.168 3.168 0 00-.729.807v-3.084c0-.903-1.467-1.224-2.725-1.224s-2.726.32-2.726 1.224v4.319c-.88.24-1.62.587-2.134 1.014A3.317 3.317 0 0019 26.59v17.922c.003 1.6 3.199 2.329 6.166 2.329.43 0 .864-.017 1.295-.048a.498.498 0 00.323.39l7.035 2.248a.501.501 0 00.347-.014l10.79-4.314a.51.51 0 00.323-.476v-3.768c0-.004-.003-.008-.003-.013zm-16.794.015c-.829.21-1.92.37-3.316.37-1.123 0-2.048-.106-2.807-.255v-8.09c.886.155 1.856.233 2.807.233 1.14 0 2.305-.109 3.316-.331v8.073zm13.755.17l-8.276 2.3-3.644-.803v-.384l7.986-1.648.01-.002 3.924.537zm-9.2-25.105c.563 0 .987.076 1.261.16-.267.085-.687.168-1.26.168s-.992-.082-1.26-.168c.273-.084.697-.16 1.26-.16zm-1.507 1.157c.89.263 2.125.263 3.015 0v3.728c-.182.108-.716.262-1.508.262-.79 0-1.326-.154-1.508-.262v-3.728zm-2.282 4.617c.312-.254.764-.476 1.289-.646.127.756 1.344 1.035 2.5 1.035 1.158 0 2.376-.28 2.5-1.037.54.175.998.405 1.325.676.515.398.812.99.812 1.628V39.58l-5.685 1.171a13.457 13.457 0 01-.654-.06v-3.2a15.64 15.64 0 001.703.098c1.212 0 2.462-.134 3.477-.413V27.91c-.262.084-.58.157-.924.226a13.25 13.25 0 01-2.553.232c-.636 0-1.201-.038-1.702-.098v-1.68a3.301 3.301 0 00-1.326-2.649c-.41-.332-.952-.611-1.578-.83a2.06 2.06 0 01.816-1.411zm2.087 14.87V29.19a15.088 15.088 0 004.255-.114v7.357c-.69.135-1.532.232-2.553.232-.635 0-1.201-.037-1.702-.098zm-6.168-18.154c.676 0 1.18.1 1.473.203-.076.026-.149.054-.253.08-.01.002-.024.003-.035.007-.123.028-.27.052-.428.073-.045.005-.092.012-.14.016-.188.019-.39.034-.617.034-.227 0-.427-.016-.615-.034l-.143-.016a4.616 4.616 0 01-.417-.071l-.046-.01c-.104-.025-.178-.053-.253-.08.293-.103.797-.202 1.474-.202zm-1.71 1.198c.026.009.056.01.08.018.2.059.41.107.63.14.13.021.26.032.394.044a7.18 7.18 0 00.974.016l.228-.015c.142-.014.28-.025.416-.047.218-.033.425-.081.62-.14.024-.007.054-.009.079-.016v4.203c-.185.125-.789.31-1.71.31-.92 0-1.524-.186-1.709-.31v-4.203h-.001zm-3.44 24.896V26.59c0-.716.332-1.384.926-1.843.361-.3.89-.56 1.513-.753.08.844 1.49 1.15 2.711 1.15.806 0 1.683-.138 2.218-.47.276-.171.466-.393.493-.68.189.058.352.135.523.205.38.158.725.333.982.54.594.45.935 1.124.935 1.85v14.51l-.82.169V31.409a7.465 7.465 0 01-1.016.322c-.828.21-1.92.37-3.315.37a14.59 14.59 0 01-2.808-.254 9.352 9.352 0 01-1.016-.249v10.195c1.115.307 2.491.454 3.824.454.427 0 .858-.02 1.283-.051a.501.501 0 01.177-.274c.003-.004.003-.01.008-.012.002-.002.007-.002.008-.004-.006.004-.011.01-.016.016a.5.5 0 00-.158.274c-.01.037-.026.072-.026.112v.087l-.012 3.382a16.6 16.6 0 01-1.264.047c-3.396 0-5.149-.922-5.15-1.315zm7.438 1.81l.002-.655.01-2.709 2.852.626 1.016.223 2.129.466v3.971l-6.009-1.922zm16.801-2.039l-9.767 3.905v-3.938l9.767-2.714v2.747z"/></symbol><symbol viewBox="0 0 48 48" id="icon-bed-2" xmlns="http://www.w3.org/2000/svg"><path d="M22.246 23.512v-3.07c0-.648-.249-1.269-.691-1.727a2.321 2.321 0 00-1.67-.715h-4.992c-.627 0-1.227.257-1.67.715a2.484 2.484 0 00-.692 1.727v3.07a2.39 2.39 0 00-.934.895c-.226.381-.346.82-.347 1.267v3.838c0 .27.211.488.472.488a.48.48 0 00.472-.488v-1.186h10.39v1.186c0 .27.21.488.471.488a.48.48 0 00.473-.488v-3.838c-.001-.447-.121-.886-.347-1.267a2.39 2.39 0 00-.935-.895zm-8.77-.284v-2.786c0-.389.15-.761.415-1.036.266-.275.626-.43 1.002-.43h4.992c.376 0 .736.155 1.002.43s.415.647.415 1.036v2.79h-1.695v-.837c0-.388-.15-.76-.415-1.036a1.393 1.393 0 00-1.002-.429h-1.606c-.375 0-.736.154-1.001.43a1.49 1.49 0 00-.415 1.035v.837h-1.692v-.003zm5.186 0h-2.55v-.837a.48.48 0 01.472-.488h1.606c.125 0 .245.051.334.143a.497.497 0 01.138.345v.838zm-6.467 2.446c0-.389.15-.761.415-1.036a1.394 1.394 0 011.002-.429h7.555c.376 0 .736.154 1.002.43.265.274.415.646.415 1.035v1.675h-10.39v-1.675zm23.273-2.162v-3.07c0-.648-.248-1.269-.691-1.727a2.321 2.321 0 00-1.67-.715h-4.992c-.626 0-1.227.257-1.67.715a2.484 2.484 0 00-.691 1.727v3.07a2.387 2.387 0 00-.934.893c-.226.38-.346.818-.348 1.265v3.838c0 .27.212.488.473.488a.48.48 0 00.472-.488v-1.182h10.389v1.186c0 .27.211.488.472.488a.48.48 0 00.472-.488v-3.838c0-.447-.12-.886-.347-1.267a2.387 2.387 0 00-.934-.895zm-8.77-.284v-2.786c0-.389.15-.761.416-1.036.265-.275.625-.43 1.001-.43h4.993c.375 0 .736.155 1.001.43.266.275.415.647.415 1.036v2.79H32.83v-.837c0-.388-.15-.76-.415-1.036a1.392 1.392 0 00-1.002-.429h-1.605c-.376 0-.736.154-1.002.43a1.49 1.49 0 00-.415 1.035v.837H26.7v-.004zm5.188 0h-2.55v-.837a.48.48 0 01.472-.488h1.605c.125 0 .245.051.334.143a.496.496 0 01.139.345v.837zm-6.47 2.442c0-.388.15-.761.416-1.036a1.394 1.394 0 011.002-.429h7.555c.376 0 .736.155 1.002.43.265.274.415.647.415 1.035v1.675h-10.39V25.67z"/></symbol><symbol viewBox="0 0 40 40" id="icon-bed-big" xmlns="http://www.w3.org/2000/svg"><g clip-path="url(#ahclip0_4913_9883)"><path d="M28.929 25.625c.214 0 .357-.14.357-.352V24.22h.357c.214 0 .357-.14.357-.352v-3.515c0-.844-.607-1.547-1.429-1.723v-1.477c0-1.511-1.285-2.777-2.821-2.777h-11.5c-1.536 0-2.821 1.266-2.821 2.777v1.477c-.822.176-1.429.879-1.429 1.723v3.515c0 .211.143.352.357.352h.357v1.054c0 .211.143.352.357.352.215 0 .358-.14.358-.352V24.22H28.57v1.054c0 .211.143.352.358.352zm-16.786-8.473c0-1.125.964-2.074 2.107-2.074h11.464c1.179 0 2.143.95 2.143 2.074v1.442h-1.464c-.107-.809-.822-1.407-1.643-1.407h-1.643c-.821 0-1.536.598-1.643 1.407h-2.893c-.107-.809-.821-1.407-1.642-1.407h-1.643c-.822 0-1.536.598-1.643 1.407h-1.5v-1.442zm13.536 1.442h-3.5a.952.952 0 01.928-.703h1.643c.429 0 .821.28.929.703zm-7.858 0h-3.5a.952.952 0 01.929-.703h1.643c.428 0 .821.28.928.703zm-7.107 1.758c0-.598.465-1.055 1.072-1.055h16.428c.607 0 1.072.457 1.072 1.055v3.164H10.714v-3.164z"/></g><defs><clipPath id="ahclip0_4913_9883"><path transform="translate(10 14.375)" d="M0 0h20v11.25H0z"/></clipPath></defs></symbol><symbol viewBox="0 0 64 64" id="icon-breakfast" xmlns="http://www.w3.org/2000/svg"><path d="M44.644 28.462a4.345 4.345 0 00-1.902.465c.15-.729.225-1.47.224-2.213a.535.535 0 00-.534-.534h-21.04a.534.534 0 00-.534.534 10.944 10.944 0 002.671 7.225 6.889 6.889 0 00-5.092 4.035 4.991 4.991 0 00-2.432 3.394.534.534 0 00.144.443l2.672 2.672c.167.164.42.2.626.091l3.473-1.881 3.506-.727h4.618l3.462.722 3.485 1.892c.206.109.459.072.625-.091l2.672-2.672a.535.535 0 00.15-.45 4.99 4.99 0 00-2.421-3.382 7.402 7.402 0 00-1.235-1.919c.316-.194.62-.404.914-.63l.171-.14c1.069-.785 2.213-.534 3.549-.261.728.18 1.473.285 2.223.31a3.442 3.442 0 100-6.883h.005zM19.276 43.468l-2.202-2.202a3.993 3.993 0 011.753-2.325l3.068 3.1-2.619 1.427zm3.74-1.849l-3.484-3.474a5.83 5.83 0 014.655-3.27l1.545 6.172-2.715.572zm7.702-.7h-3.933l-1.63-6.536a4.243 4.243 0 013.559-1.94 4.563 4.563 0 013.607 1.946l-1.603 6.53zm9.657.348l-2.197 2.196-2.624-1.422 3.09-3.088h-.001a3.975 3.975 0 011.71 2.313h.022zm-2.41-3.122l-3.463 3.474-2.753-.572 1.54-6.162a5.815 5.815 0 014.654 3.26h.022zm-.947-2.848a7.373 7.373 0 00-3.8-1.507 5.563 5.563 0 00-4.483-2.416 5.306 5.306 0 00-4.179 2.052 9.902 9.902 0 01-2.619-6.199H41.93a9.964 9.964 0 01-.727 3.25 9.85 9.85 0 01-4.206 4.82h.022zm7.664-1.031a9.751 9.751 0 01-2.004-.29 9.888 9.888 0 00-2.17-.293c.7-.84 1.267-1.78 1.684-2.79a2.837 2.837 0 012.496-1.405 2.388 2.388 0 110 4.772l-.006.006zM30.969 18.677c-.759.62-1.7 1.406-1.7 3.03 0 2.213 2.138 3.207 3.25 3.41h.101a.537.537 0 00.097-1.069c-.097 0-2.379-.47-2.379-2.357 0-1.154.593-1.64 1.294-2.207.7-.566 1.34-1.069 1.34-2.137a2.2 2.2 0 00-.635-1.647 2.849 2.849 0 00-1.903-.7.534.534 0 000 1.069c.423-.006.834.134 1.165.396.224.236.339.556.316.881.01.524-.331.834-.946 1.331z"/></symbol><symbol viewBox="0 0 63 63" id="icon-buffet" xmlns="http://www.w3.org/2000/svg"><g clip-path="url(#ajclip0_5707_15984)"><path d="M8.58 26.08V0H.01v26.08h8.57zM8.58 62.08V36H.01v26.08h8.57zM62.48 26.08V0h-8.57v26.08h8.57zM62.48 62.08V36h-8.57v26.08h8.57zM31.24 35.04a4 4 0 100-8 4 4 0 000 8zM31.24 17.04a4 4 0 100-8 4 4 0 000 8zM31.24 53.04a4 4 0 100-8 4 4 0 000 8z"/></g><defs><clipPath id="ajclip0_5707_15984"><path d="M0 0h62.48v62.08H0z"/></clipPath></defs></symbol><symbol viewBox="0 0 70 71" id="icon-classroom" xmlns="http://www.w3.org/2000/svg"><g clip-path="url(#akclip0_5381_12922)"><path d="M69.955 0H0v9.67h69.955V0zM29.426 20.309H0v9.67h29.426v-9.67zM70 20.309H40.574v9.67H70v-9.67zM6.408 39.694a4.513 4.513 0 100-9.026 4.513 4.513 0 000 9.026zM22.521 39.694a4.513 4.513 0 100-9.026 4.513 4.513 0 000 9.026zM47.232 39.694a4.513 4.513 0 100-9.026 4.513 4.513 0 000 9.026zM63.343 39.694a4.513 4.513 0 100-9.026 4.513 4.513 0 000 9.026zM29.426 51H0v9.67h29.426V51zM70 51H40.574v9.67H70V51zM6.408 70.382a4.513 4.513 0 100-9.027 4.513 4.513 0 000 9.027zM22.521 70.382a4.513 4.513 0 100-9.026 4.513 4.513 0 000 9.026zM47.232 70.382a4.513 4.513 0 100-9.026 4.513 4.513 0 000 9.026zM63.343 70.382a4.513 4.513 0 100-9.026 4.513 4.513 0 000 9.026z"/></g><defs><clipPath id="akclip0_5381_12922"><path d="M0 0h70v70.384H0z"/></clipPath></defs></symbol><symbol viewBox="0 0 48 48" id="icon-clock" xmlns="http://www.w3.org/2000/svg"><g opacity=".8"><path d="M24.002 13.5A10.5 10.5 0 1034.5 24a10.511 10.511 0 00-10.5-10.5zm0 20.094a9.594 9.594 0 119.594-9.595A9.605 9.605 0 0124 33.594z"/><path d="M24.454 23.813v-3.83a.453.453 0 00-.905 0v4.018c0 .12.048.235.132.32l2.895 2.894a.452.452 0 00.64-.64l-2.762-2.762zM24.002 16.992c.25 0 .452-.203.452-.452v-.689a.453.453 0 00-.905 0v.689c0 .25.203.452.453.452zM24.002 31.305a.453.453 0 00-.453.452v.689a.453.453 0 00.905 0v-.689a.453.453 0 00-.453-.452zM16.393 23.695h-.689a.453.453 0 000 .905h.689a.453.453 0 100-.905zM31.61 24.6h.69a.453.453 0 000-.905h-.69a.453.453 0 000 .905z"/></g></symbol><symbol viewBox="0 0 64 64" id="icon-conditioner" xmlns="http://www.w3.org/2000/svg"><path d="M44.753 19H19.247a2.339 2.339 0 00-2.333 2.338V32.83a2.338 2.338 0 002.333 2.338h25.506a2.338 2.338 0 002.334-2.338V21.34A2.338 2.338 0 0044.753 19zm-23.53 1.081h21.554v2.152H21.224v-2.152zm0 3.229h21.554v2.157H21.224V23.31zm0 3.233h21.554v2.158H21.224v-2.158zm24.788 6.286a1.257 1.257 0 01-1.258 1.258H19.248a1.256 1.256 0 01-1.258-1.258V21.34a1.253 1.253 0 011.258-1.258h.9v9.158c0 .297.24.538.538.538h22.629c.297 0 .538-.241.538-.538V20.08h.9a1.254 1.254 0 011.257 1.258v11.49zM26.719 37.771a.538.538 0 00-.72-.196l-1.543.875v-1.67a.538.538 0 10-1.076 0v1.67l-1.509-.88a.54.54 0 10-.538.935l1.509.88-1.509.88a.54.54 0 00.538.936l1.509-.88v1.845a.538.538 0 101.076 0V40.32l1.509.88a.54.54 0 00.538-.936l-1.509-.88 1.509-.88a.537.537 0 00.216-.734zM42.526 37.771a.543.543 0 00-.72-.196l-1.543.88V36.78a.538.538 0 10-1.076 0v1.67l-1.51-.88a.54.54 0 10-.537.935l1.508.88-1.508.88a.54.54 0 10.538.936l1.509-.88v1.845a.538.538 0 101.076 0V40.32l1.508.88a.543.543 0 00.543-.936l-1.508-.88 1.508-.88a.543.543 0 00.212-.734zM34.62 42.173a.533.533 0 00-.714-.196l-1.55.88v-1.76a.538.538 0 10-1.075 0v1.76l-1.509-.88a.543.543 0 10-.543.935l1.509.88-1.51.88a.543.543 0 00.529.91l1.509-.88v1.76a.538.538 0 101.076 0v-1.76l1.508.88a.54.54 0 10.538-.935l-1.508-.88 1.508-.88a.538.538 0 00.232-.714z"/><path d="M21.034 31.195a1.002 1.002 0 00-.503.151l-.136.111a1.53 1.53 0 00-.11.14.86.86 0 00-.08.152.824.824 0 00-.066.186 1.014 1.014 0 000 .176.9.9 0 10.885-.916h.01z"/></symbol><symbol viewBox="0 0 48 48" id="icon-facebook" xmlns="http://www.w3.org/2000/svg"><path d="M30 14h-3a5 5 0 00-5 5v3h-3v4h3v8h4v-8h3l1-4h-4v-3a1 1 0 011-1h3v-4z" stroke-linecap="round" stroke-linejoin="round"/></symbol><symbol viewBox="0 0 40 40" id="icon-guests" xmlns="http://www.w3.org/2000/svg"><path d="M17.4 26.268c.429 0 .857-.2 1.143-.543.286-.342.372-.8.286-1.228l-.543-2.457a3.636 3.636 0 00-3.543-2.83 3.666 3.666 0 00-3.543 2.83l-.543 2.457c-.086.428 0 .886.286 1.229.285.342.685.542 1.142.542H17.4zm-6.172-1.657l.543-2.457a3.053 3.053 0 012.972-2.4c1.428 0 2.657 1 2.971 2.4l.543 2.457a.867.867 0 01-.171.743c-.172.2-.429.343-.686.343h-5.314a.852.852 0 01-.686-.343c-.172-.2-.229-.457-.172-.743zM12.4 15.468a2.354 2.354 0 002.343 2.343 2.354 2.354 0 002.343-2.343 2.354 2.354 0 00-2.343-2.343 2.354 2.354 0 00-2.343 2.343zm4.115 0c0 .971-.8 1.772-1.772 1.772a1.78 1.78 0 01-1.771-1.772c0-.971.8-1.771 1.771-1.771.971 0 1.772.8 1.772 1.771zM27.378 26.268c.429 0 .857-.2 1.143-.543.286-.342.371-.8.286-1.228l-.543-2.457a3.636 3.636 0 00-3.543-2.83 3.666 3.666 0 00-3.543 2.83l-.543 2.457c-.086.428 0 .886.285 1.229.286.342.686.542 1.143.542h5.315zm-6.172-1.657l.543-2.457a3.053 3.053 0 012.972-2.4c1.428 0 2.657 1 2.971 2.4l.543 2.457a.866.866 0 01-.171.743c-.172.2-.429.343-.686.343h-5.314a.852.852 0 01-.686-.343c-.172-.2-.229-.457-.172-.743zM22.378 15.468a2.354 2.354 0 002.343 2.343 2.354 2.354 0 002.343-2.343 2.354 2.354 0 00-2.343-2.343 2.354 2.354 0 00-2.343 2.343zm4.114 0c0 .971-.8 1.772-1.771 1.772a1.78 1.78 0 01-1.771-1.772c0-.971.8-1.771 1.771-1.771.971 0 1.771.8 1.771 1.771z"/></symbol><symbol viewBox="0 0 48 48" id="icon-gym" xmlns="http://www.w3.org/2000/svg"><path d="M34.866 22.812h-.928v-.394a1.623 1.623 0 00-.514-1.17 1.794 1.794 0 00-2.16-.224 1.655 1.655 0 00-.94-1.32 1.816 1.816 0 00-1.676.05 1.643 1.643 0 00-.852 1.373v1.685h-7.592v-1.71a1.642 1.642 0 00-.853-1.372 1.816 1.816 0 00-1.675-.05c-.53.258-.885.756-.94 1.32a1.792 1.792 0 00-2.154.227c-.326.31-.51.73-.512 1.168v.417h-.928c-.298 0-.585.11-.799.31-.213.198-.336.469-.343.753v1.024c.007.284.13.554.343.753.214.199.5.31.8.31h.927v.393c.002.44.187.86.514 1.17a1.794 1.794 0 002.16.224c.055.564.41 1.062.94 1.32s1.163.24 1.676-.05c.512-.288.834-.806.853-1.372v-1.685h7.6v1.685c.018.566.34 1.084.852 1.373a1.816 1.816 0 001.675.05c.531-.259.886-.757.941-1.32a1.779 1.779 0 002.14-.222c.323-.304.509-.716.518-1.149v-.417h.919c.303 0 .593-.115.807-.319a1.06 1.06 0 00.335-.768v-1.024a1.064 1.064 0 00-.349-.735 1.173 1.173 0 00-.785-.304zm-21.724 2.362a.307.307 0 01-.314-.299v-1.024a.31.31 0 01.315-.252h.927v1.575h-.928zm2.666 2.048a.944.944 0 01-.633-.248.855.855 0 01-.277-.595v-3.985c.029-.29.21-.549.48-.687a.96.96 0 01.869 0 .874.874 0 01.48.688v3.984a.846.846 0 01-.27.615.936.936 0 01-.649.251v-.023zm2.658 1.291a.945.945 0 01-.647-.253.854.854 0 01-.272-.613v-6.544c.029-.292.21-.55.48-.688a.96.96 0 01.869 0 .874.874 0 01.48.688v6.504a.84.84 0 01-.242.654.935.935 0 01-.668.276v-.024zm1.738-3.339V23.6h7.6v1.575h-7.6zm10.257 2.497a.873.873 0 01-.48.687.959.959 0 01-.868 0 .874.874 0 01-.481-.687v-6.568c.029-.291.21-.55.48-.687a.959.959 0 01.869 0 .873.873 0 01.48.687v6.568zm2.65-1.292a.873.873 0 01-.481.688.96.96 0 01-.868 0 .874.874 0 01-.481-.688v-3.984c.03-.292.21-.55.48-.688a.96.96 0 01.869 0 .873.873 0 01.48.688v3.984zm2.06-1.48c0 .165-.14.299-.314.299h-.919v-1.599h.92c.173 0 .314.134.314.3v1z"/></symbol><symbol viewBox="0 0 64 64" id="icon-hairdryer" xmlns="http://www.w3.org/2000/svg"><path d="M25.544 21c-4.16.01-7.544 3.398-7.544 7.565a7.602 7.602 0 003.54 6.407l-.003 6.174c0 .7.646 1.32 1.384 1.32h2.234c-.183 2.01-1.56 3.327-3.544 3.327v.924c2.491 0 4.275-1.726 4.472-4.251H28.3c.697 0 1.245-.579 1.248-1.32v-6.154a7.489 7.489 0 002.241-2.135l12.344-3.943V21H25.544zm17.665 7.24l-11.9 3.801.003.014a.441.441 0 00-.207.172 6.691 6.691 0 01-2.247 2.106.465.465 0 00-.22.51h-.013v6.303c-.004.193-.115.396-.325.396H22.92c-.223 0-.463-.203-.463-.396l.006-6.302h-.017a.462.462 0 00-.21-.532 6.664 6.664 0 01-3.313-5.747 6.648 6.648 0 016.62-6.64H43.21l-.001 6.315z"/><path d="M25.739 32.935a4.504 4.504 0 01-4.499-4.5 4.503 4.503 0 014.499-4.497 4.503 4.503 0 014.498 4.498 4.504 4.504 0 01-4.498 4.499zm0-8.074a3.579 3.579 0 00-3.575 3.575 3.579 3.579 0 003.575 3.575 3.579 3.579 0 003.575-3.575 3.58 3.58 0 00-3.575-3.575zM47.55 23.087h-1.94a.462.462 0 010-.923h1.94a.462.462 0 010 .923zM47.55 25.415h-1.94a.462.462 0 010-.923h1.94a.461.461 0 110 .923zM47.55 27.744h-1.94a.461.461 0 110-.924h1.94a.461.461 0 110 .924z"/></symbol><symbol viewBox="0 0 40 40" id="icon-humidity" xmlns="http://www.w3.org/2000/svg"><path d="M20.17 10.065h-.023a.285.285 0 00-.082-.039.248.248 0 00-.073-.026h-.164a.249.249 0 00-.073.026.285.285 0 00-.082.039h-.022C19.379 10.272 13 15.17 13 22.08a6.91 6.91 0 1013.82 0c0-6.91-6.379-11.808-6.65-12.015zm-.26 18.061a6.047 6.047 0 01-6.046-6.046c0-5.705 4.876-10.115 6.046-11.1 1.188.972 6.046 5.381 6.046 11.1a6.046 6.046 0 01-6.046 6.046zm2.51-7.774l-4.406 4.405a.432.432 0 01-.307.126.432.432 0 01-.306-.739l4.405-4.4a.432.432 0 11.613.608zm-3.318 1.089a1.494 1.494 0 000-2.112 1.525 1.525 0 00-2.111 0 1.493 1.493 0 002.111 2.112zm-1.684-1.089a.643.643 0 01.181-.432.635.635 0 01.882-.008c.12.115.19.274.194.44a.622.622 0 01-.186.432.643.643 0 01-.89 0 .635.635 0 01-.18-.432zm3.3 2.67a1.495 1.495 0 002.111 2.115 1.494 1.494 0 000-2.111 1.534 1.534 0 00-2.111.008v-.013zm1.503 1.502a.643.643 0 01-.89 0 .622.622 0 01-.186-.432.635.635 0 01.63-.63.627.627 0 01.613.617.636.636 0 01-.167.458v-.013z"/></symbol><symbol viewBox="0 0 48 48" id="icon-instagram" xmlns="http://www.w3.org/2000/svg"><path d="M29 14H19a5 5 0 00-5 5v10a5 5 0 005 5h10a5 5 0 005-5V19a5 5 0 00-5-5z" stroke-linecap="round" stroke-linejoin="round"/><path d="M28 23.37a4 4 0 11-7.914 1.174A4 4 0 0128 23.37z" stroke-linecap="round" stroke-linejoin="round"/><path d="M29.5 18.5h.01" stroke-width="2" stroke-linecap="round" stroke-linejoin="round"/></symbol><symbol viewBox="0 0 48 48" id="icon-laptop" xmlns="http://www.w3.org/2000/svg"><path d="M15.628 15.75c-.62 0-1.12.506-1.12 1.135v12.47c0 .126.092.22.217.22h18.55a.212.212 0 00.218-.22v-12.47c0-.628-.5-1.135-1.121-1.135H15.628zm0 .44h16.744c.38 0 .686.31.686.697v12.249H14.94V16.493h.163c.125-.173.297-.302.526-.302h0zm-2.494 13.764c-.63 0-1.134.511-1.134 1.146 0 .637.506 1.15 1.134 1.15h21.735c.627 0 1.131-.513 1.131-1.15 0-.636-.503-1.146-1.13-1.146a.212.212 0 00-.218.218c0 .126.093.22.217.22a.71.71 0 010 1.42H13.134a.71.71 0 010-1.42.214.214 0 00.217-.22.212.212 0 00-.217-.218v0z" stroke-width=".5"/></symbol><symbol viewBox="0 0 70 71" id="icon-letter-p" xmlns="http://www.w3.org/2000/svg"><g clip-path="url(#auclip0_5704_15671)"><path d="M49.88 10.723H10.355v59.454h9.575V20.286h29.95v49.891h9.564V10.723H49.88zM4.464 49.099a4.464 4.464 0 100-8.927 4.464 4.464 0 000 8.927zM4.464 29.013a4.464 4.464 0 100-8.927 4.464 4.464 0 000 8.927zM24.862 8.927a4.464 4.464 0 100-8.927 4.464 4.464 0 000 8.927zM44.948 8.927a4.464 4.464 0 100-8.927 4.464 4.464 0 000 8.927zM4.464 69.185a4.464 4.464 0 100-8.927 4.464 4.464 0 000 8.927zM65.538 49.099a4.464 4.464 0 100-8.927 4.464 4.464 0 000 8.927zM65.538 29.013a4.464 4.464 0 100-8.927 4.464 4.464 0 000 8.927zM65.538 69.185a4.464 4.464 0 100-8.927 4.464 4.464 0 000 8.927z"/></g><defs><clipPath id="auclip0_5704_15671"><path d="M0 0h70v70.178H0z"/></clipPath></defs></symbol><symbol viewBox="0 0 48 48" id="icon-map-pin" xmlns="http://www.w3.org/2000/svg"><path d="M33 22c0 7-9 13-9 13s-9-6-9-13a9 9 0 0118 0z" stroke-linecap="round" stroke-linejoin="round"/><path d="M24 25a3 3 0 100-6 3 3 0 000 6z" stroke-linecap="round" stroke-linejoin="round"/></symbol><symbol viewBox="0 0 48 48" id="icon-microphone" xmlns="http://www.w3.org/2000/svg"><path d="M30.163 24.939c-.482 3.226-3.08 5.684-6.112 5.856v4.09c0 .2-.152.365-.342.365-.19 0-.343-.162-.343-.364v-4.09c-3.033-.173-5.63-2.634-6.112-5.857-.029-.198.097-.385.282-.416.186-.033.361.103.39.3.449 2.995 2.935 5.256 5.78 5.256 2.848 0 5.332-2.259 5.78-5.256.028-.197.204-.333.39-.3.188.031.316.218.287.416h0zm-10.41-1.093v-7.632c0-2.323 1.775-4.214 3.956-4.214 2.18 0 3.956 1.889 3.956 4.214v7.632c0 2.322-1.776 4.214-3.956 4.214-2.18 0-3.956-1.892-3.956-4.214v0zm.682 0c0 1.922 1.467 3.487 3.274 3.487s3.274-1.563 3.274-3.487v-7.632c0-1.922-1.467-3.488-3.274-3.488s-3.274 1.563-3.274 3.488v7.632z" stroke-width=".5"/></symbol><symbol viewBox="0 0 48 48" id="icon-mini-bar" xmlns="http://www.w3.org/2000/svg"><path d="M29.99 29.76a.434.434 0 00.213-.055c.14-.085.275-.182.4-.288a2.836 2.836 0 00.988-2.528l-.19-1.65a.435.435 0 00-.864.098l.19 1.653a1.972 1.972 0 01-.674 1.762c-.09.072-.186.137-.288.193a.432.432 0 00.216.806l.009.008z"/><path d="M31.456 35.114a.432.432 0 00-.432-.432H29.23v-3.435a3.997 3.997 0 003.55-4.48l-.673-5.845a.429.429 0 00-.43-.383H25.92a.432.432 0 00-.429.383l-.67 5.845a4.031 4.031 0 001.413 3.584c.61.499 1.35.81 2.134.896v3.434h-1.783a.432.432 0 100 .864h4.44a.432.432 0 00.432-.431zm-.161-13.711l.253 2.223h-5.5l.248-2.223h4.999zm-5.618 5.47l.274-2.375h5.698l.27 2.375a3.138 3.138 0 01-3.12 3.536 3.139 3.139 0 01-3.122-3.544v.008zM22.805 34.223V23.605a5.266 5.266 0 00-.455-2.338c-.08-.205-.17-.44-.27-.726a12.599 12.599 0 00-.447-1.054 5.362 5.362 0 01-.518-1.408l-.153-2.879a.44.44 0 00.199-.365v-.933a1.151 1.151 0 00-1.152-1.152h-1.468a1.151 1.151 0 00-1.152 1.152v.933c0 .148.076.286.202.365l-.15 2.86c-.103.49-.275.963-.513 1.404-.155.343-.32.697-.449 1.066-.1.288-.19.52-.27.728a5.243 5.243 0 00-.455 2.344v10.621a1.404 1.404 0 001.46 1.333h4.131a1.404 1.404 0 001.46-1.333zm-.864-4.054h-3.334v-5.787h3.334v5.787zm-3.685-16.267c0-.16.129-.288.288-.288h1.468a.287.287 0 01.288.288v.5h-2.044v-.5zM16.62 34.223V23.602a4.477 4.477 0 01.398-2.047c.083-.21.175-.452.288-.763.112-.311.267-.654.417-.976.28-.533.474-1.106.576-1.7l.153-2.861h1.655l.153 2.88v.025c.106.584.3 1.148.575 1.673.15.325.306.662.418.979.112.316.196.538.288.751.277.613.413 1.28.397 1.952h-3.763a.432.432 0 00-.432.432v6.642c0 .239.194.432.432.432h3.766v3.202a.553.553 0 01-.596.47h-4.129a.553.553 0 01-.596-.47z"/></symbol><symbol viewBox="0 0 48 48" id="icon-offer" xmlns="http://www.w3.org/2000/svg"><path stroke-linecap="round" d="M17.129 30.199l12.793-12.793"/><circle cx="19.024" cy="18.773" r="2.685" transform="rotate(-45 19.024 18.773)"/><circle cx="28.903" cy="28.936" r="2.685" transform="rotate(-45 28.903 28.936)"/></symbol><symbol viewBox="0 0 64 64" id="icon-parking" xmlns="http://www.w3.org/2000/svg"><path d="M24.904 43V20.6h8.032c1.877 0 3.488.299 4.832.896 1.344.597 2.379 1.461 3.104 2.592.725 1.11 1.088 2.464 1.088 4.064 0 1.557-.363 2.901-1.088 4.032-.725 1.13-1.76 1.995-3.104 2.592s-2.955.896-4.832.896H25.8l.736-.768V43h-1.632zm1.632-8l-.736-.8h7.136c2.41 0 4.235-.523 5.472-1.568 1.259-1.067 1.888-2.56 1.888-4.48 0-1.941-.63-3.435-1.888-4.48-1.237-1.067-3.061-1.6-5.472-1.6H25.8l.736-.8V35z"/></symbol><symbol viewBox="0 0 48 48" id="icon-phone" xmlns="http://www.w3.org/2000/svg"><path d="M30.665 27.28v2a1.334 1.334 0 01-1.453 1.334 13.194 13.194 0 01-5.754-2.047 13 13 0 01-4-4 13.193 13.193 0 01-2.046-5.78 1.332 1.332 0 011.326-1.453h2a1.333 1.333 0 011.334 1.147c.084.64.24 1.268.466 1.873a1.334 1.334 0 01-.3 1.407l-.846.846a10.667 10.667 0 004 4l.846-.846a1.333 1.333 0 011.407-.3 8.559 8.559 0 001.873.466 1.334 1.334 0 011.147 1.354z" stroke-linecap="round" stroke-linejoin="round"/></symbol><symbol viewBox="0 0 48 48" id="icon-pool" xmlns="http://www.w3.org/2000/svg"><path d="M10.268 30.632c.793 0 1.164.322 1.633.728.53.46 1.132.982 2.311.982 1.18 0 1.78-.522 2.311-.982.47-.407.84-.728 1.633-.728s1.164.321 1.633.728c.53.46 1.132.981 2.312.981s1.781-.521 2.312-.982c.47-.406.84-.727 1.634-.727.793 0 1.164.321 1.634.728.53.46 1.132.981 2.312.981s1.782-.521 2.314-.981c.47-.407.84-.728 1.634-.728.793 0 1.165.321 1.635.728.53.46 1.133.981 2.313.981a.519.519 0 000-1.036c-.794 0-1.165-.321-1.635-.728-.53-.46-1.133-.981-2.313-.981-1.18 0-1.782.521-2.313.982-.415.358-.754.65-1.373.714a.517.517 0 00.04-.201v-2.34l.001-.018v-3.506-.018-3.505-.018-3.506-.018-2.332c0-.513 0-1.58-1.408-1.58s-1.408 1.067-1.408 1.58a.519.519 0 001.036 0c0-.544 0-.544.372-.544s.372 0 .372.544v1.815h-7.203V15.83c0-.513 0-1.58-1.408-1.58s-1.408 1.067-1.408 1.58a.519.519 0 001.036 0c0-.544 0-.544.372-.544.373 0 .373 0 .373.544v15.18a4.718 4.718 0 01-.554-.432c-.53-.46-1.132-.982-2.312-.982s-1.78.522-2.311.982c-.47.407-.84.728-1.633.728s-1.163-.321-1.633-.728c-.53-.46-1.132-.981-2.311-.981a.518.518 0 000 1.035zm11.79-11.952h7.203v2.488h-7.204V18.68zm0 3.524h7.203v2.488h-7.204v-2.488zm0 3.524h7.203v2.487h-7.204v-2.487zm0 5.364v-1.84h7.203v1.84c0 .033.004.065.01.097-.353-.129-.612-.352-.911-.611-.53-.46-1.133-.982-2.313-.982-1.18 0-1.781.522-2.312.982-.47.407-.84.728-1.633.728-.032 0-.06-.004-.09-.005a.515.515 0 00.046-.21z"/><path d="M10.268 32.79c.793 0 1.164.322 1.633.728.53.46 1.132.981 2.311.981 1.18 0 1.78-.52 2.311-.981.47-.407.84-.728 1.633-.728s1.164.321 1.633.728c.53.46 1.132.981 2.312.981s1.78-.521 2.312-.982c.47-.406.84-.727 1.634-.727.793 0 1.164.321 1.634.728.53.46 1.131.981 2.311.981 1.181 0 1.783-.521 2.314-.982.47-.406.841-.727 1.635-.727.793 0 1.164.321 1.635.728.53.46 1.133.981 2.313.981a.519.519 0 000-1.036c-.794 0-1.165-.321-1.635-.728-.531-.46-1.133-.981-2.313-.981-1.18 0-1.782.521-2.314.982-.47.406-.84.727-1.634.727-.793 0-1.164-.32-1.634-.728-.53-.46-1.132-.98-2.312-.98s-1.782.52-2.313.98c-.469.407-.84.728-1.633.728s-1.164-.32-1.633-.728c-.53-.46-1.132-.98-2.312-.98s-1.78.52-2.311.98c-.47.407-.84.729-1.633.729s-1.163-.322-1.633-.728c-.53-.46-1.132-.982-2.311-.982a.518.518 0 000 1.036z"/></symbol><symbol viewBox="0 0 48 48" id="icon-projector" xmlns="http://www.w3.org/2000/svg"><path d="M23.83 20.6c-1.657 0-2.997 1.285-2.997 2.871s1.34 2.87 2.996 2.87 2.997-1.284 2.997-2.87-1.34-2.87-2.997-2.87zm0 5.024c-1.223 0-2.209-.944-2.209-2.115 0-1.171.986-2.153 2.208-2.153 1.222 0 2.208.944 2.208 2.115 0 1.17-.986 2.153-2.208 2.153zm11.434-6.383h-9.227a5.377 5.377 0 00-2.208-.491c-.788 0-1.538.189-2.208.491h-9.227c-.236 0-.394.151-.394.378v7.705c0 .226.158.377.394.377h.395v.53c0 .566.473 1.019 1.065 1.019h2.168c.592 0 1.065-.453 1.065-1.02v-.529h4.495c.67.303 1.42.491 2.208.491.789 0 1.538-.188 2.208-.49h4.534v.528c0 .566.473 1.02 1.065 1.02h2.169c.591 0 1.064-.453 1.064-1.02V27.7h.395c.236 0 .394-.15.394-.378V19.62c.04-.19-.118-.378-.355-.378zM16.337 28.23c0 .15-.118.264-.276.264h-2.169c-.157 0-.276-.113-.276-.264v-.529h2.76v.529h-.039zm.789-1.284h-4.338v-6.95h7.69c-.986.87-1.617 2.116-1.617 3.475 0 1.36.63 2.606 1.616 3.475h-3.351zm6.703.529c-2.287 0-4.18-1.776-4.18-4.004 0-2.228 1.893-3.965 4.18-3.965s4.18 1.775 4.18 4.003-1.893 3.966-4.18 3.966zm10.252.755c0 .15-.118.264-.276.264h-2.169c-.158 0-.276-.113-.276-.264v-.529h2.76v.529h-.04zm.788-1.284H27.18c.986-.869 1.617-2.115 1.617-3.475 0-1.36-.63-2.606-1.617-3.474h7.69v6.949zm-2.918-5.779c0-.226.158-.378.395-.378h1.301c.237 0 .395.151.395.378s-.158.378-.395.378h-1.301c-.197 0-.394-.151-.394-.378z"/></symbol><symbol viewBox="0 0 48 48" id="icon-screen" xmlns="http://www.w3.org/2000/svg"><path stroke-linecap="round" d="M10.25 14.5h27.5M10.25 29.5h27.5"/><path d="M12.5 14.25v15M36 14.25v15"/><circle cx="23.625" cy="35.625" r="1.375"/><path d="M23.5 34.5V30"/></symbol><symbol viewBox="0 0 40 40" id="icon-shower" xmlns="http://www.w3.org/2000/svg"><path d="M27.077 10a.424.424 0 00-.424.424v1.513h-6.43a2.915 2.915 0 00-2.887 2.531 4.673 4.673 0 00-4.238 4.64v.879a1.033 1.033 0 00-.598.951 1.05 1.05 0 001.036 1.044h8.472a1.045 1.045 0 00.409-1.995v-.88a4.659 4.659 0 00-4.224-4.639 2.069 2.069 0 012.03-1.684h6.43v1.755a.424.424 0 00.847 0v-4.115a.423.423 0 00-.424-.424zm-5.069 11.135h-8.471a.182.182 0 010-.363h8.472a.182.182 0 010 .363zm-.438-2.027v.816h-7.625v-.816a3.813 3.813 0 017.625 0zM14.851 24.132c.197-.188.486-.473.486-1.002v-.242a.424.424 0 00-.847 0v.242c0 .16-.052.225-.225.39-.197.19-.49.474-.49 1.002 0 .529.3.814.496 1.002.173.166.233.231.233.39 0 .16-.059.225-.232.39-.196.189-.493.473-.493 1.002s.29.813.486 1.002c.173.165.225.23.225.39v.363a.424.424 0 00.847 0v-.363c0-.529-.29-.814-.486-1.002-.173-.166-.229-.231-.229-.39 0-.16.062-.225.235-.39.197-.189.494-.473.494-1.002s-.296-.813-.493-1.002c-.173-.165-.236-.23-.236-.39 0-.159.056-.224.23-.39zM17.877 24.132c.196-.188.486-.473.486-1.002v-.242a.424.424 0 00-.848 0v.242c0 .16-.052.225-.224.39-.197.19-.49.474-.49 1.002 0 .529.299.814.495 1.002.173.166.234.231.234.39 0 .16-.06.225-.232.39-.197.189-.494.473-.494 1.002s.29.813.486 1.002c.173.165.226.23.226.39v.363a.424.424 0 00.847 0v-.363c0-.529-.29-.814-.486-1.002-.173-.166-.23-.231-.23-.39 0-.16.062-.225.235-.39.197-.189.495-.473.495-1.002s-.297-.813-.493-1.002c-.173-.165-.236-.23-.236-.39 0-.159.056-.224.229-.39zM20.902 24.132c.197-.188.486-.473.486-1.002v-.242a.424.424 0 00-.847 0v.242c0 .16-.052.225-.225.39-.197.19-.49.474-.49 1.002 0 .529.3.814.496 1.002.172.166.233.231.233.39 0 .16-.06.225-.232.39-.196.189-.493.473-.493 1.002s.29.813.486 1.002c.173.165.225.23.225.39v.363a.424.424 0 00.847 0v-.363c0-.529-.29-.814-.486-1.002-.173-.166-.229-.231-.229-.39 0-.16.062-.225.235-.39.196-.189.494-.473.494-1.002s-.296-.813-.493-1.002c-.173-.165-.236-.23-.236-.39 0-.159.056-.224.229-.39z"/></symbol><symbol viewBox="0 0 40 40" id="icon-slippers" xmlns="http://www.w3.org/2000/svg"><path d="M13.707 21.717l.002.007c.162.964.288 1.952.288 2.695 0 2.216 1.005 3.086 1.604 3.407.371.2.783.299 1.192.299.43 0 .856-.109 1.232-.326.666-.385 1.034-1.024 1.009-1.753-.013-.4-.033-.81-.052-1.222-.089-1.867-.18-3.798.288-4.744.631-1.279.723-2.928.727-3.004a2.481 2.481 0 00-.741-1.902 2.743 2.743 0 00-1.957-.799c-.757 0-1.5.191-2.15.554a3.938 3.938 0 00-1.927 4.323c.142.638.33 1.54.485 2.465zm3.965 5.527c-.526.303-1.191.31-1.737.017-.81-.435-1.257-1.444-1.257-2.842 0-.76-.124-1.756-.285-2.727a4.367 4.367 0 012.133-2.693c.453.34 1.741 1.42 1.73 2.67v.005c-.06.963-.007 2.081.045 3.18.02.409.039.817.052 1.213.016.488-.232.917-.681 1.177zM15.494 15.49a3.71 3.71 0 011.805-.465 2.05 2.05 0 011.463.598c.385.385.582.89.554 1.421 0 .017-.087 1.594-.663 2.76a2.807 2.807 0 00-.149.377c-.495-.859-1.276-1.487-1.6-1.724V17.26a.333.333 0 00-.34-.325.333.333 0 00-.341.325v1.158c-.425.22-1.398.829-2.055 2.037a54.818 54.818 0 00-.279-1.337c-.323-1.455.322-2.913 1.605-3.629zM21.018 22.324c-.02.412-.039.823-.052 1.222-.025.73.343 1.368 1.009 1.753.376.217.803.326 1.232.326.41 0 .821-.1 1.192-.299.6-.32 1.604-1.19 1.604-3.407 0-.743.127-1.731.288-2.695l.002-.007c.155-.926.343-1.827.485-2.465a3.938 3.938 0 00-1.927-4.323 4.415 4.415 0 00-2.15-.554c-.747 0-1.442.284-1.957.8a2.48 2.48 0 00-.74 1.9c.003.077.095 1.726.726 3.005.468.946.377 2.877.288 4.744zm3.047 2.437a1.797 1.797 0 01-1.737-.017c-.45-.26-.697-.689-.681-1.177.014-.396.033-.804.052-1.214.052-1.098.105-2.217.044-3.18l.001-.004c-.011-1.25 1.276-2.328 1.729-2.67a4.412 4.412 0 012.134 2.693c-.161.971-.285 1.967-.285 2.727 0 1.398-.447 2.407-1.257 2.842zm-2.827-11.639a2.05 2.05 0 011.463-.598c.636 0 1.26.161 1.805.465 1.283.716 1.928 2.174 1.605 3.629-.082.372-.18.834-.28 1.337a5.034 5.034 0 00-2.053-2.037V14.76a.333.333 0 00-.341-.324.333.333 0 00-.34.324v1.196c-.325.237-1.106.866-1.601 1.724a2.804 2.804 0 00-.148-.376c-.575-1.163-.663-2.744-.664-2.76a1.855 1.855 0 01.554-1.422z"/></symbol><symbol viewBox="0 0 48 48" id="icon-sound" xmlns="http://www.w3.org/2000/svg"><path d="M26.418 16.183a.494.494 0 00-.494 0l-6.049 3.245h-3.288c-.877 0-1.588.71-1.588 1.587v6c0 .877.71 1.587 1.588 1.587h3.288l6.057 3.255a.494.494 0 00.74-.425V16.608a.494.494 0 00-.254-.424zm-6.91 11.432h-2.922a.6.6 0 01-.6-.6v-6a.6.6 0 01.6-.6h2.921v7.2zm6.162 2.982l-5.185-2.782v-7.6l5.185-2.783v13.165zM32.506 23.527h-1.867v-1.892a.494.494 0 10-.989 0v1.892h-1.867a.494.494 0 000 .989h1.867v1.893a.494.494 0 00.989 0v-1.893h1.867a.494.494 0 000-.988z"/></symbol><symbol viewBox="0 0 48 48" id="icon-spa" xmlns="http://www.w3.org/2000/svg"><path d="M26.232 23.293c0 .209-.008.418-.026.627-.007.084 0 .198-.029.278.012-.087.014-.098.005-.033l-.012.081a7.362 7.362 0 01-.4 1.54 12.194 12.194 0 01-.075.192 7.738 7.738 0 01-.545 1.049c-.129.209-.334.426-.334.684l.078-.294c-.058.082-.114.167-.178.245.1-.124-.02.025-.039.049a8.821 8.821 0 01-.505.586 9.138 9.138 0 01-.858.801h.805a9.375 9.375 0 01-1.428-1.471c-.09-.118.053.073-.01-.013-.067-.096-.137-.19-.203-.287a8.16 8.16 0 01-.713-1.29l-.036-.082a7.947 7.947 0 01-.31-.944 7.59 7.59 0 01-.168-.856 7.509 7.509 0 01-.005-1.687l.01-.085a.693.693 0 00-.003.027c0-.068.021-.145.032-.212a7.53 7.53 0 01.39-1.432c.021-.054.045-.108.065-.163-.047.133-.026.062-.013.031l.047-.107a7.89 7.89 0 01.724-1.297 7.684 7.684 0 01.206-.29l-.041.055c.087-.097.163-.209.247-.31a9.309 9.309 0 011.209-1.199h-.805c.343.284.667.59.967.922.152.167.298.34.437.519l.045.06c-.008-.01-.08-.11-.021-.03l.088.122a8.26 8.26 0 01.814 1.413l.066.152c.03.07-.044-.109-.015-.037l.034.086a7.704 7.704 0 01.439 1.632c.004.025.012.059.012.085 0-.152-.002-.02.002.016.034.287.05.577.05.867.001.305.261.597.57.583a.586.586 0 00.569-.584c-.006-2.06-.811-4.005-2.134-5.54a9.328 9.328 0 00-1.118-1.09c-.26-.215-.544-.217-.805 0-1.587 1.314-2.794 3.186-3.134 5.268a8.294 8.294 0 001.119 5.682 9.425 9.425 0 002.015 2.31c.116.097.245.179.402.172a.65.65 0 00.403-.171 9.144 9.144 0 001.626-1.734c.107-.145.21-.285.21-.479a70.62 70.62 0 00-.078.295 8.337 8.337 0 001.494-4.712c0-.305-.263-.597-.57-.583a.587.587 0 00-.569.583z"/><path d="M32.833 26.125a9.092 9.092 0 01-.1.274l-.05.127c-.037.095.011-.02.014-.033-.008.03-.025.06-.038.089a7.724 7.724 0 01-.911 1.603c-.06.082.077-.1-.01.011a6.848 6.848 0 01-.543.618 6.296 6.296 0 01-.402.37l-.1.082c-.06.05.084-.065.021-.018l-.047.036a5.687 5.687 0 01-1.05.63l-.054.025c-.071.033.1-.041.027-.012l-.148.06c-.362.14-.738.242-1.12.302-.018.002-.056.003-.074.01.01-.004.142-.017.041-.006l-.129.014a5.489 5.489 0 01-1.124-.007l-.128-.015c-.078-.01.118.018.04.005l-.09-.014a6.422 6.422 0 01-1.32-.376c-.038-.016-.198-.103-.059-.024-.095-.054-.2-.092-.298-.14a7.811 7.811 0 01-1.167-.723v1.007l.008-.006a67.54 67.54 0 01-.287.08c2.305-.058 4.613-.994 6.084-2.865a8.108 8.108 0 001.195-2.111l-.7.407a6.26 6.26 0 011.296.384c.032.014.125.039-.007-.003.031.01.062.027.092.04.494.226.96.51 1.398.837.241.18.645.05.778-.21.157-.302.054-.605-.204-.797-.902-.673-1.949-1.174-3.05-1.376-.33-.06-.579.09-.701.407-.015.038-.027.081-.046.117.072-.135.006-.015-.006.015a7.547 7.547 0 01-.332.673 7.232 7.232 0 01-.239.396c-.082.126-.188.244-.261.375.075-.135.031-.042.004-.007a10.174 10.174 0 01-.198.243 6.654 6.654 0 01-.853.836c-.026.022-.053.042-.078.064.126-.11.038-.03.008-.008a6.882 6.882 0 01-1.356.809c-.03.014-.063.026-.092.04a8.61 8.61 0 01-.368.14 7.68 7.68 0 01-1.43.354c-.016.003-.132.018-.028.005.107-.014-.044.005-.063.007a8.327 8.327 0 01-.454.043c-.21.014-.51-.024-.684.103-.168.122-.282.284-.282.504 0 .221.115.38.282.504 1.358 1.01 3.066 1.626 4.757 1.45a6.126 6.126 0 002.537-.835 6.653 6.653 0 001.82-1.629 8.994 8.994 0 001.375-2.572c.1-.288-.112-.65-.397-.717-.318-.074-.592.1-.7.408z"/><path d="M23.44 29.013a7.92 7.92 0 01-1.267.772 6.023 6.023 0 01-.146.068l-.055.024a7.155 7.155 0 01-.531.194 6.259 6.259 0 01-.858.207l-.065.01c-.082.015.106-.012.023-.003l-.171.02a5.875 5.875 0 01-1.21-.012l-.064-.01a6.334 6.334 0 01-.463-.097 5.395 5.395 0 01-.731-.243c-.018-.008-.037-.018-.055-.023.014.004.119.053.027.01a5.557 5.557 0 01-1.101-.659c-.015-.01-.031-.027-.048-.035.109.057.04.032.007.004a6.2 6.2 0 01-.902-.903 9.186 9.186 0 01-.08-.098l-.044-.057c-.047-.06.007.01.023.031a9.07 9.07 0 01-.648-1.03 8.501 8.501 0 01-.262-.548l-.06-.141c.069.156-.009-.024-.022-.058a9.855 9.855 0 01-.114-.311l-.261.658a7.68 7.68 0 011.387-.832c.029-.013.065-.024.091-.04-.027.018-.095.04-.026.011l.184-.074a6.485 6.485 0 011.122-.319l-.7-.407c.473 1.222 1.213 2.33 2.218 3.156a7.83 7.83 0 003.1 1.558c.643.159 1.32.258 1.982.258a67.54 67.54 0 00-.287-.08.144.144 0 01.008.006c.246.172.642.056.778-.21a.606.606 0 00-.204-.797c-.162-.113-.394-.086-.582-.096a8.686 8.686 0 01-.42-.033c-.07-.006-.138-.015-.208-.023-.126-.015.14.02.014.002l-.068-.01a8.187 8.187 0 01-1.202-.28 7.44 7.44 0 01-.54-.195l-.094-.04c-.094-.038.127.058-.019-.007a6.983 6.983 0 01-1.356-.802c-.026-.02-.052-.044-.08-.062.136.087.042.033.01.007a6.937 6.937 0 01-.456-.406 6.811 6.811 0 01-.597-.665c-.028-.036-.1-.167-.017-.02-.04-.07-.098-.134-.144-.2a7.083 7.083 0 01-.67-1.203c-.016-.038-.035-.076-.048-.115.055.155-.009-.024-.02-.054-.122-.313-.369-.469-.7-.407-1.095.205-2.135.704-3.03 1.372-.194.144-.352.401-.262.658.538 1.548 1.44 2.94 2.751 3.904 1.482 1.09 3.39 1.408 5.147.95a7.59 7.59 0 002.591-1.269c.124-.091.22-.192.262-.348a.608.608 0 00-.057-.45c-.154-.243-.521-.4-.78-.208z"/><path d="M29.917 24.808c-.014.038-.026.08-.045.116.071-.135.006-.015-.007.015a7.522 7.522 0 01-.332.674 7.193 7.193 0 01-.239.395c-.081.126-.188.245-.261.375.075-.135.031-.041.004-.006a12.293 12.293 0 01-.175.216 6.83 6.83 0 01-.875.863c-.026.021-.054.041-.079.063.112-.098.064-.05.035-.028-.053.04-.107.081-.162.12a6.885 6.885 0 01-1.282.737c-.113.05.126-.052.012-.006a7.717 7.717 0 01-1.807.507c-.034.006-.07.009-.103.016.168-.036.052-.007.013-.002a7.217 7.217 0 01-.897.064l.402.996c.937-.802 1.752-1.745 2.323-2.857a8.256 8.256 0 00.926-3.992 8.139 8.139 0 00-.426-2.38l-.262.659c.3-.21.613-.396.94-.556l.239-.112a2.053 2.053 0 00.037-.016 6.863 6.863 0 01.643-.232c.355-.11.719-.195 1.086-.254l.115-.017a2.914 2.914 0 00.043-.005 8.08 8.08 0 01.866-.062l-.549-.428a10.941 10.941 0 01.22 1.04c.01.057.017.115.026.172.01.066.008.058-.003-.025l.011.086c.054.455.075.914.062 1.372a8.71 8.71 0 01-.047.674c-.003.034-.02.227-.005.053-.004.055-.015.11-.023.165a7.924 7.924 0 01-.423 1.6c-.051.132-.01.332.057.449a.582.582 0 00.34.268c.327.076.584-.102.7-.407.543-1.425.64-2.975.437-4.48a10.538 10.538 0 00-.255-1.277.58.58 0 00-.549-.428c-1.602.036-3.211.48-4.543 1.413-.198.139-.347.405-.261.658a7.73 7.73 0 01.328 1.335c.027.163.036.33.046.495a7.526 7.526 0 01-.027 1.237l-.014.128c-.017.148.02-.131-.003.015a7.603 7.603 0 01-.423 1.62l-.04.104c-.049.123.053-.124 0-.002a8.026 8.026 0 01-.944 1.655l-.022.031.02-.027c-.015.04-.065.085-.092.12a9.964 9.964 0 01-1.36 1.383c-.172.148-.198.44-.117.637a.571.571 0 00.52.358c.59 0 1.19-.083 1.765-.208a8.244 8.244 0 001.684-.572 7.242 7.242 0 002.655-2.084 8.112 8.112 0 001.194-2.112c.052-.131.01-.332-.057-.449a.581.581 0 00-.34-.268c-.328-.076-.582.103-.7.408z"/><path d="M23.717 28.927a8.92 8.92 0 01-.633-.036c-.099-.009-.197-.02-.295-.032a.382.382 0 00.048.006l-.069-.01a7.861 7.861 0 01-1.76-.477c-.041-.017-.21-.103-.05-.02-.168-.088-.345-.16-.514-.25a6.964 6.964 0 01-.877-.558c-.035-.027-.177-.153-.044-.033-.297-.268-.596-.518-.862-.82a7.173 7.173 0 01-.286-.348c-.021-.027-.06-.088.026.034l-.063-.085a7.023 7.023 0 01-.717-1.242l-.075-.171c-.032-.075.04.1.01.024l-.038-.097a7.695 7.695 0 01-.44-1.702c.015.092-.003-.031-.005-.05a8.957 8.957 0 01.015-2.174.467.467 0 00-.003.022c.002-.044.012-.089.019-.132a10.658 10.658 0 01.23-1.105l-.548.428a9.038 9.038 0 01.866.062l.078.01-.036-.005.116.018a7.858 7.858 0 011.728.486 3.81 3.81 0 01.02.008c.086.04.172.078.257.12.326.16.64.346.939.556l-.262-.659a8.16 8.16 0 00-.266 4.21c.262 1.318.871 2.532 1.686 3.58a9.174 9.174 0 001.403 1.438c.121.1.24.171.402.171.14 0 .307-.063.403-.17.19-.213.247-.621 0-.825a9.238 9.238 0 01-1.364-1.39l-.076-.098a8.795 8.795 0 01-.26-.373 8.176 8.176 0 01-.63-1.147c-.018-.038-.034-.076-.05-.114-.063-.14.046.117-.007-.015a7.508 7.508 0 01-.477-1.777c-.016-.105.002.005.002.022-.001-.04-.01-.08-.014-.12a7.444 7.444 0 01-.013-1.446c.009-.1.016-.201.032-.3a7.655 7.655 0 01.328-1.335c.087-.255-.062-.519-.262-.659-1.331-.933-2.94-1.376-4.543-1.413a.58.58 0 00-.548.428c-.575 2.182-.485 4.556.544 6.584.852 1.678 2.304 2.927 4.02 3.595.927.36 1.926.531 2.916.554a.582.582 0 00.57-.583c-.016-.323-.252-.578-.571-.585z"/></symbol><symbol viewBox="0 0 40 40" id="icon-swimming-cap" xmlns="http://www.w3.org/2000/svg"><path d="M29.098 18.604a17.257 17.257 0 00-.113-1.145 1.158 1.158 0 00-.03-.131 1.93 1.93 0 01-.042-.188.3.3 0 00-.03-.213.299.299 0 00-.502 0c-.063.108-1.533 2.613-3.258 1.752-1.614-.807-4.088-.897-5.146-.897.095-.194.179-.388.25-.58a3.951 3.951 0 00-.442-3.586 3.885 3.885 0 00-7.092 1.638 4.392 4.392 0 00-.018.834c-.248.155-.962.484-2.328.23a.299.299 0 00-.343.34c0 .072.316 1.692 3.586 1.692h.05c.058.066.114.128.177.191.182.147.29.365.299.598a.896.896 0 01-.389.619 2.903 2.903 0 00-.896 1.533 3.886 3.886 0 001.673 4.232c1.925 1.246 4.669 1.39 5.813 1.39h.526a12.781 12.781 0 004.128-.807 7.245 7.245 0 003.263-2.607c.314-.5.538-1.05.66-1.628.229-1.073.297-2.174.204-3.267zm-18.257-1.62a3.657 3.657 0 001.921-.275c.092.374.242.731.445 1.058-1.39-.065-2.056-.466-2.367-.783zM28.33 21.74c-.108.511-.304 1-.58 1.444a6.629 6.629 0 01-2.988 2.364c-1.264.47-2.596.728-3.942.765-.036 0-3.715.191-5.978-1.285a3.363 3.363 0 01-1.425-3.587c.103-.477.354-.909.717-1.234.338-.244.556-.622.598-1.037a1.374 1.374 0 00-.467-1.022 3.926 3.926 0 01-.239-.266v-.018a3.078 3.078 0 01-.735-1.53 3.821 3.821 0 010-1.01 3.288 3.288 0 013.24-2.896h.131c1.07.04 2.054.597 2.64 1.494a3.38 3.38 0 01.379 3.072c-.122.323-.271.635-.445.933a.298.298 0 000 .299.28.28 0 00.26.137c.032 0 3.446-.128 5.379.834 1.587.792 2.926-.508 3.586-1.351.03.257.051.523.07.789.086 1.04.018 2.086-.201 3.105z"/><path d="M25.084 20.69c-.014 0-1.634.94-3.012 0-.855-.576-1.62-.836-2.337-.8a2.206 2.206 0 00-1.734.914 2.045 2.045 0 00-.227 1.86c.38 1.15 1.623 1.825 2.618 1.969.24.033.482.05.724.05 1.354 0 3.458-.54 4.387-3.648a.298.298 0 00-.099-.3.299.299 0 00-.32-.044zm-4.605 3.357c-.849-.122-1.862-.702-2.149-1.578a1.476 1.476 0 01.15-1.327c.3-.41.776-.655 1.285-.663h.101c.682.039 1.337.279 1.883.69.892.57 2.002.68 2.989.299-1.043 2.606-3.078 2.747-4.26 2.58zM15.502 14.043a1.046 1.046 0 10-.006 2.093 1.046 1.046 0 00.006-2.093zm0 1.51a.466.466 0 11.024-.933.466.466 0 01-.024.932z"/></symbol><symbol viewBox="0 0 48 48" id="icon-table" xmlns="http://www.w3.org/2000/svg"><path d="M14.172 18.75H33.84M16.954 18.75L13.5 32.375M31.059 18.75l3.454 13.625M16.324 21.23h15.363" stroke-miterlimit="10" stroke-linecap="round" stroke-linejoin="round"/></symbol><symbol viewBox="0 0 70 70" id="icon-table-round" xmlns="http://www.w3.org/2000/svg"><g clip-path="url(#bkclip0_5704_15538)"><path d="M59.545 18.637v-7.934h-49.1v48.854h49.1v-40.92zM20.02 49.983V20.032h29.973v29.95H20.02zM4.464 49.099a4.464 4.464 0 100-8.927 4.464 4.464 0 000 8.927zM4.464 29.013a4.464 4.464 0 100-8.927 4.464 4.464 0 000 8.927zM24.862 8.927a4.464 4.464 0 100-8.927 4.464 4.464 0 000 8.927zM44.948 8.927a4.464 4.464 0 100-8.927 4.464 4.464 0 000 8.927zM24.862 69.185a4.464 4.464 0 100-8.927 4.464 4.464 0 000 8.927zM44.948 69.185a4.464 4.464 0 100-8.927 4.464 4.464 0 000 8.927zM65.538 49.099a4.464 4.464 0 100-8.927 4.464 4.464 0 000 8.927zM65.538 29.013a4.464 4.464 0 100-8.927 4.464 4.464 0 000 8.927z"/></g><defs><clipPath id="bkclip0_5704_15538"><path d="M0 0h70v69.185H0z"/></clipPath></defs></symbol><symbol viewBox="0 0 40 40" id="icon-temperature" xmlns="http://www.w3.org/2000/svg"><path d="M19.915 23.731v-9.67a.39.39 0 00-.39-.39.39.39 0 00-.39.39v9.67a1.902 1.902 0 00-1.512 1.86c0 1.048.854 1.901 1.902 1.901a1.905 1.905 0 001.902-1.902 1.906 1.906 0 00-1.512-1.859zm-.39 2.982a1.123 1.123 0 110-2.244 1.123 1.123 0 010 2.244z"/><path d="M21.51 22.238v-10.25A1.991 1.991 0 0019.522 10a1.991 1.991 0 00-1.987 1.988v10.25a3.88 3.88 0 00-1.91 3.352 3.904 3.904 0 003.897 3.898 3.904 3.904 0 003.898-3.898 3.871 3.871 0 00-1.91-3.352zm-1.984 6.47a3.122 3.122 0 01-3.118-3.118c0-1.173.651-2.237 1.7-2.775a.389.389 0 00.21-.347v-10.48a1.21 1.21 0 012.417 0v10.484c0 .148.082.28.21.347a3.109 3.109 0 011.7 2.775c0 1.715-1.4 3.114-3.119 3.114zM24.238 12.016H22.58a.39.39 0 00-.39.39c0 .214.176.389.39.389h1.657a.39.39 0 00.39-.39.39.39 0 00-.39-.39zM22.581 14.744h1.103a.39.39 0 00.39-.39.39.39 0 00-.39-.39h-1.103a.39.39 0 00-.39.39c0 .215.176.39.39.39z"/><path d="M24.238 15.91H22.58a.39.39 0 00-.39.39c0 .214.176.39.39.39h1.657a.39.39 0 00.39-.39.39.39 0 00-.39-.39zM22.581 18.643h1.103a.39.39 0 00.39-.39.39.39 0 00-.39-.39h-1.103a.39.39 0 00-.39.39c0 .214.176.39.39.39zM24.238 19.809H22.58a.39.39 0 00-.39.39c0 .214.176.389.39.389h1.657a.39.39 0 00.39-.39.39.39 0 00-.39-.39z"/></symbol><symbol viewBox="0 0 70 71" id="icon-theater" xmlns="http://www.w3.org/2000/svg"><g clip-path="url(#bmclip0_5381_12859)"><path d="M70 0H0v9.676h70V0zM4.516 29.68a4.516 4.516 0 100-9.031 4.516 4.516 0 000 9.032zM24.838 29.68a4.516 4.516 0 100-9.031 4.516 4.516 0 000 9.032zM4.516 50.005a4.516 4.516 0 100-9.032 4.516 4.516 0 000 9.032zM24.838 50.005a4.516 4.516 0 100-9.032 4.516 4.516 0 000 9.032zM45.162 50.005a4.516 4.516 0 100-9.032 4.516 4.516 0 000 9.032zM65.484 29.68a4.516 4.516 0 100-9.031 4.516 4.516 0 000 9.032zM65.484 50.005a4.516 4.516 0 100-9.032 4.516 4.516 0 000 9.032zM4.516 70.33a4.516 4.516 0 100-9.033 4.516 4.516 0 000 9.032zM14.677 29.68a4.516 4.516 0 100-9.031 4.516 4.516 0 000 9.032zM45.162 29.68a4.516 4.516 0 100-9.032 4.516 4.516 0 000 9.033zM55.323 29.68a4.516 4.516 0 100-9.031 4.516 4.516 0 000 9.032zM14.677 50.005a4.516 4.516 0 100-9.032 4.516 4.516 0 000 9.032zM14.677 70.33a4.516 4.516 0 100-9.033 4.516 4.516 0 000 9.032zM24.838 70.33a4.516 4.516 0 100-9.033 4.516 4.516 0 000 9.032zM45.162 70.33a4.516 4.516 0 100-9.033 4.516 4.516 0 000 9.032zM65.484 70.33a4.516 4.516 0 100-9.033 4.516 4.516 0 000 9.032zM55.323 50.005a4.516 4.516 0 100-9.032 4.516 4.516 0 000 9.032zM55.323 70.33a4.516 4.516 0 100-9.033 4.516 4.516 0 000 9.032z"/></g><defs><clipPath id="bmclip0_5381_12859"><path d="M0 0h70v70.327H0z"/></clipPath></defs></symbol><symbol viewBox="0 0 64 64" id="icon-tv" xmlns="http://www.w3.org/2000/svg"><path d="M43.143 19H20.857A1.858 1.858 0 0019 20.854V35.69a1.853 1.853 0 001.857 1.855h10.524v4.4a22.713 22.713 0 00-8.283 1.781.618.618 0 00-.322.804.606.606 0 00.805.432 20.962 20.962 0 0116.826 0 .593.593 0 00.247 0 .63.63 0 10.235-1.236 22.652 22.652 0 00-8.27-1.78v-4.401h10.524A1.858 1.858 0 0045 35.689V20.854A1.853 1.853 0 0043.143 19zm.619 16.69a.618.618 0 01-.619.618H20.857a.619.619 0 01-.619-.618V20.854c0-.34.277-.618.619-.618h22.286a.62.62 0 01.619.618V35.69z"/></symbol><symbol viewBox="0 0 64 64" id="icon-water" xmlns="http://www.w3.org/2000/svg"><path d="M26.519 22.89v-1.157c.125 0 .246-.049.335-.136a.463.463 0 00.138-.33V19.4c0-.371-.15-.727-.416-.99a1.43 1.43 0 00-1.004-.41h-3.786a1.43 1.43 0 00-1.003.41 1.39 1.39 0 00-.417.99v1.867c0 .123.05.242.139.33.089.087.21.136.335.136h4.732v1.4c0 .156.08.302.21.389a5.82 5.82 0 011.465 1.373 8.158 8.158 0 01-3.42-.099 9.113 9.113 0 00-3.507-.162 5.843 5.843 0 011.256-1.112.465.465 0 00.21-.389v-.466h-.946v.222a6.732 6.732 0 00-2.03 2.29 6.702 6.702 0 00-.81 3.186v.449a1.38 1.38 0 00.416.99l.334.33-.334.33a1.381 1.381 0 00-.416.99v.626a1.38 1.38 0 00.416.99l.334.33-.334.33a1.38 1.38 0 00-.416.99v.627a1.38 1.38 0 00.416.99l.334.33-.334.33a1.381 1.381 0 00-.416.99v.627a1.38 1.38 0 00.416.99l.334.33-.334.33a1.381 1.381 0 00-.416.99v2.88c0 .494.2.969.555 1.319.355.35.836.546 1.338.547h7.572a1.91 1.91 0 001.338-.547c.355-.35.555-.825.555-1.32v-2.88a1.381 1.381 0 00-.415-.99l-.335-.33.335-.33c.267-.262.416-.618.415-.99v-.626a1.381 1.381 0 00-.415-.99l-.335-.33.335-.33c.267-.262.416-.619.415-.99v-.627a1.381 1.381 0 00-.415-.99l-.335-.33.335-.33c.267-.262.416-.618.415-.99v-.627a1.381 1.381 0 00-.415-.99l-.335-.33.335-.33c.267-.262.416-.618.415-.99v-.448a6.725 6.725 0 00-2.84-5.476zm-5.206-3.49a.47.47 0 01.473-.467h3.786a.47.47 0 01.474.467v1.4h-4.733v-1.4zm7.099 9.413a.46.46 0 01-.139.33l-.53.524H20.84v.933h6.903l.53.523a.46.46 0 01.139.33v.627a.46.46 0 01-.139.33l-.53.523H20.84v.934h6.903l.53.523a.46.46 0 01.139.33v.627a.46.46 0 01-.139.33l-.53.523H20.84v.933h6.903l.53.524a.46.46 0 01.139.33v.627a.46.46 0 01-.139.33l-.53.523H20.84v.933h6.903l.53.523a.46.46 0 01.139.33v2.88c0 .248-.1.485-.278.66a.954.954 0 01-.669.274h-7.572a.954.954 0 01-.669-.274.927.927 0 01-.277-.66v-2.88a.46.46 0 01.138-.33l.67-.66a.464.464 0 000-.66l-.67-.66a.46.46 0 01-.138-.33v-.626a.46.46 0 01.138-.33l.67-.66a.464.464 0 000-.66l-.67-.66a.46.46 0 01-.138-.33v-.627a.46.46 0 01.138-.33l.67-.66a.464.464 0 000-.66l-.67-.66a.46.46 0 01-.138-.33v-.627a.46.46 0 01.138-.33l.67-.66a.464.464 0 000-.66l-.67-.66a.46.46 0 01-.138-.33v-.448c0-.916.22-1.82.64-2.636l.338-.074a8.143 8.143 0 013.673.047 9.09 9.09 0 003.922.092l.259-.05c.416.812.633 1.71.633 2.621v.448z"/><path d="M20.111 41.246h.793v2.906h-.793v-2.906zM19.848 28.475v.088h1.069v-.088c0-.76.174-1.512.516-2.216l-.99-.337a5.832 5.832 0 00-.595 2.553zM42.519 22.89v-1.157c.125 0 .246-.049.334-.136a.463.463 0 00.14-.33V19.4c-.001-.371-.151-.727-.417-.99a1.43 1.43 0 00-1.004-.41h-3.786a1.43 1.43 0 00-1.003.41 1.39 1.39 0 00-.417.99v1.867c0 .123.05.242.139.33.089.087.21.136.335.136h4.732v1.4c0 .156.08.302.21.389a5.82 5.82 0 011.465 1.373 8.158 8.158 0 01-3.42-.099 9.113 9.113 0 00-3.507-.162 5.843 5.843 0 011.255-1.112.465.465 0 00.211-.389v-.466h-.946v.222a6.732 6.732 0 00-2.03 2.29 6.702 6.702 0 00-.81 3.186v.449a1.38 1.38 0 00.416.99l.335.33-.335.33a1.381 1.381 0 00-.416.99v.626a1.38 1.38 0 00.416.99l.335.33-.335.33a1.38 1.38 0 00-.416.99v.627a1.38 1.38 0 00.416.99l.335.33-.335.33a1.381 1.381 0 00-.416.99v.627a1.38 1.38 0 00.416.99l.335.33-.335.33a1.381 1.381 0 00-.416.99v2.88c0 .494.2.969.555 1.319.355.35.836.546 1.338.547h7.572a1.91 1.91 0 001.338-.547c.355-.35.555-.825.556-1.32v-2.88a1.381 1.381 0 00-.416-.99l-.335-.33.335-.33c.267-.262.416-.618.416-.99v-.626a1.381 1.381 0 00-.416-.99l-.335-.33.335-.33c.267-.262.416-.619.416-.99v-.627a1.381 1.381 0 00-.416-.99l-.335-.33.335-.33c.267-.262.416-.618.416-.99v-.627a1.381 1.381 0 00-.416-.99l-.335-.33.335-.33c.267-.262.416-.618.416-.99v-.448a6.725 6.725 0 00-2.84-5.476zm-5.206-3.49a.47.47 0 01.473-.467h3.786a.47.47 0 01.474.467v1.4h-4.733v-1.4zm7.099 9.413a.46.46 0 01-.139.33l-.53.524H36.84v.933h6.903l.53.523a.46.46 0 01.139.33v.627a.46.46 0 01-.139.33l-.53.523H36.84v.934h6.903l.53.523a.46.46 0 01.139.33v.627a.46.46 0 01-.139.33l-.53.523H36.84v.933h6.903l.53.524a.46.46 0 01.139.33v.627a.46.46 0 01-.139.33l-.53.523H36.84v.933h6.903l.53.523a.46.46 0 01.139.33v2.88c0 .248-.1.485-.278.66a.954.954 0 01-.669.274h-7.572a.954.954 0 01-.669-.274.927.927 0 01-.277-.66v-2.88a.46.46 0 01.138-.33l.67-.66a.464.464 0 000-.66l-.67-.66a.46.46 0 01-.138-.33v-.626a.46.46 0 01.138-.33l.67-.66a.464.464 0 000-.66l-.67-.66a.46.46 0 01-.138-.33v-.627a.46.46 0 01.138-.33l.67-.66a.464.464 0 000-.66l-.67-.66a.46.46 0 01-.138-.33v-.627a.46.46 0 01.138-.33l.67-.66a.464.464 0 000-.66l-.67-.66a.46.46 0 01-.138-.33v-.448c0-.916.22-1.82.64-2.636l.338-.074a8.143 8.143 0 013.673.047 9.09 9.09 0 003.922.092l.258-.05c.417.812.634 1.71.634 2.621v.448z"/><path d="M36.117 41.242h.793v2.906h-.793v-2.906zM35.852 28.48v.087h1.069v-.088c0-.76.174-1.512.516-2.216l-.991-.337a5.832 5.832 0 00-.594 2.553z"/></symbol><symbol viewBox="0 0 64 64" id="icon-wi-fi" xmlns="http://www.w3.org/2000/svg"><path d="M22.006 31.8a14.126 14.126 0 0119.991 0M26.17 35.964a8.259 8.259 0 0111.661 0M18 27.795a19.812 19.812 0 0128.002 0" stroke-width="1.5" stroke-miterlimit="10"/><path d="M33.388 40.408a1.388 1.388 0 11-2.776 0 1.388 1.388 0 012.776 0z"/></symbol></svg>