<?xml version="1.0" encoding="utf-8"?><svg xmlns="http://www.w3.org/2000/svg" xmlns:xlink="http://www.w3.org/1999/xlink"><symbol viewBox="0 0 148 148" id="icon-logo" xmlns="http://www.w3.org/2000/svg"><g clip-path="url(#aclip0_5942_3341)"><path d="M48.137 147.79v-16.28h3.378v13.108h7.178v2.96H48.137v.212zM67.561 135.737h3.59L65.027 148h-1.056l-5.912-12.475h3.379l3.167 6.978 2.955-6.766zM72.627 131.298c0-.634.211-1.057.633-1.48.423-.423.845-.634 1.478-.634.634 0 1.056.211 1.478.634.422.423.634.846.634 1.48s-.212 1.057-.634 1.48c-.422.423-.844.634-1.478.634-.633 0-1.055-.211-1.478-.634-.422-.423-.633-1.057-.633-1.48zm.422 16.491v-12.051h3.378v12.051H73.05zM87.829 135.737h3.589L85.506 148h-1.055l-5.912-12.475h3.378l3.167 6.978 2.745-6.766z" fill="currentColor"/><path d="M74.106 33.617h-8.868v32.137h8.868V33.617zM69.671 16.49c-3.167 0-5.7 2.326-5.7 5.497 0 2.96 2.533 5.498 5.7 5.498 2.956 0 5.49-2.326 5.49-5.498.21-3.171-2.323-5.497-5.49-5.497zM84.452 54.548c0 8.246 4.856 12.052 12.879 12.052 2.322 0 4.855-.423 6.756-.846v-7.189h-4.856c-4.012 0-5.912-1.268-5.912-5.074V40.805h10.556l-2.744-7.4h-7.812v-8.034h-8.867v8.034h-5.067v7.4h5.067v13.743zM125.621 68.714l15.412-35.097h-9.289l-8.445 21.143-7.812-21.143h-9.29l12.246 30.235-1.056 2.114c-1.689 3.594-3.8 4.44-6.756 4.44h-3.8v6.977c1.689.423 3.8.846 5.7.846 6.334.211 10.134-2.96 13.09-9.515zM73.894 74.635h-8.656v42.92h8.656v-42.92zM99.02 84.57c-4.012 0-7.179 1.48-9.501 3.595v-2.96h-8.023v32.137h8.867V98.525c0-3.806 2.534-6.343 6.123-6.343 3.589 0 5.912 2.537 5.912 6.343v18.817h8.656V97.468c.211-7.612-4.434-12.898-12.034-12.898zM135.967 84.57c-4.012 0-7.178 1.48-9.501 3.595v-2.96h-8.023v32.137h8.868V98.525c0-3.806 2.533-6.343 6.122-6.343 3.59 0 5.912 2.537 5.912 6.343v18.817h8.656V97.468c0-7.612-4.645-12.898-12.034-12.898zM38.848 30.447h.422c5.067 0 9.5 2.749 11.823 6.766l6.967-4.229c-3.8-6.554-10.978-10.783-19.001-10.783h-.422v8.246h.21zM39.48 66.6c8.024 0 15.202-4.44 19.002-10.782l-6.967-4.229c-2.322 4.017-6.756 6.766-11.823 6.766-7.6 0-13.934-6.132-13.934-13.955h-8.445c0 12.263 9.922 22.2 22.168 22.2z"/><path d="M19.424 0L0 13.32V44.4h17.312v-1.269c.634-11.417 10.134-20.72 21.535-20.931v-8.88L19.424 0zM25.547 44.4h13.512V30.445c-7.6.212-13.512 6.343-13.512 13.955z" fill="currentColor"/></g><defs><clipPath id="aclip0_5942_3341"><path fill="transparent" d="M0 0h148v148H0z"/></clipPath></defs></symbol></svg>