<svg width="70" height="71" fill="none" xmlns="http://www.w3.org/2000/svg"><g clip-path="url(#clip0_5381_12859)" fill="#fff"><path d="M70 0H0v9.676h70V0zM4.516 29.68a4.516 4.516 0 100-9.031 4.516 4.516 0 000 9.032zm20.322 0a4.516 4.516 0 100-9.031 4.516 4.516 0 000 9.032zM4.516 50.005a4.516 4.516 0 100-9.032 4.516 4.516 0 000 9.032zm20.322 0a4.516 4.516 0 100-9.032 4.516 4.516 0 000 9.032zm20.324 0a4.516 4.516 0 100-9.032 4.516 4.516 0 000 9.032zM65.484 29.68a4.516 4.516 0 100-9.031 4.516 4.516 0 000 9.032zm0 20.325a4.516 4.516 0 100-9.032 4.516 4.516 0 000 9.032zM4.516 70.33a4.516 4.516 0 100-9.033 4.516 4.516 0 000 9.032zm10.161-40.65a4.516 4.516 0 100-9.031 4.516 4.516 0 000 9.032zm30.485 0a4.516 4.516 0 100-9.032 4.516 4.516 0 000 9.033zm10.161 0a4.516 4.516 0 100-9.031 4.516 4.516 0 000 9.032zM14.677 50.005a4.516 4.516 0 100-9.032 4.516 4.516 0 000 9.032zm0 20.325a4.516 4.516 0 100-9.033 4.516 4.516 0 000 9.032zm10.161 0a4.516 4.516 0 100-9.033 4.516 4.516 0 000 9.032zm20.324 0a4.516 4.516 0 100-9.033 4.516 4.516 0 000 9.032zm20.322 0a4.516 4.516 0 100-9.033 4.516 4.516 0 000 9.032zM55.323 50.005a4.516 4.516 0 100-9.032 4.516 4.516 0 000 9.032zm0 20.325a4.516 4.516 0 100-9.033 4.516 4.516 0 000 9.032z"/></g><defs><clipPath id="clip0_5381_12859"><path fill="#fff" d="M0 0h70v70.327H0z"/></clipPath></defs></svg>