<svg width="64" height="64" fill="none" xmlns="http://www.w3.org/2000/svg"><path d="M25.544 21c-4.16.01-7.544 3.398-7.544 7.565a7.602 7.602 0 003.54 6.407l-.003 6.174c0 .7.646 1.32 1.384 1.32h2.234c-.183 2.01-1.56 3.327-3.544 3.327v.924c2.491 0 4.275-1.726 4.472-4.251H28.3c.697 0 1.245-.579 1.248-1.32v-6.154a7.489 7.489 0 002.241-2.135l12.344-3.943V21H25.544zm17.665 7.24l-11.9 3.801.003.014a.441.441 0 00-.207.172 6.691 6.691 0 01-2.247 2.106.465.465 0 00-.22.51h-.013v6.303c-.004.193-.115.396-.325.396h-5.38c-.223 0-.463-.203-.463-.396l.006-6.302h-.017a.462.462 0 00-.21-.532 6.664 6.664 0 01-3.313-5.747 6.648 6.648 0 016.62-6.64H43.21l-.001 6.315z" fill="#fff"/><path d="M25.739 32.935a4.504 4.504 0 01-4.499-4.5 4.503 4.503 0 014.499-4.497 4.503 4.503 0 014.498 4.498 4.504 4.504 0 01-4.498 4.499zm0-8.074a3.579 3.579 0 00-3.575 3.575 3.579 3.579 0 003.575 3.575 3.579 3.579 0 003.575-3.575 3.58 3.58 0 00-3.575-3.575zm21.811-1.774h-1.94a.462.462 0 010-.923h1.94a.462.462 0 010 .923zm0 2.328h-1.94a.462.462 0 010-.923h1.94a.461.461 0 110 .923zm0 2.329h-1.94a.461.461 0 110-.924h1.94a.461.461 0 110 .924z" fill="#fff"/></svg>