<svg width="48" height="48" fill="none" xmlns="http://www.w3.org/2000/svg"><g opacity=".8" fill="#FBF8E4"><path d="M24.002 13.5A10.5 10.5 0 1034.5 24 10.511 10.511 0 0024 13.5zm0 20.094a9.594 9.594 0 119.594-9.595A9.605 9.605 0 0124 33.594z"/><path d="M24.454 23.813v-3.83a.453.453 0 00-.905 0v4.018c0 .12.048.235.132.32l2.895 2.894a.452.452 0 00.64-.64l-2.762-2.762zm-.452-6.821c.25 0 .452-.203.452-.452v-.689a.453.453 0 00-.905 0v.689c0 .25.203.452.453.452zm0 14.313a.453.453 0 00-.453.452v.689a.453.453 0 00.905 0v-.689a.453.453 0 00-.453-.452zm-7.609-7.61h-.689a.453.453 0 000 .905h.689a.453.453 0 100-.905zm15.217.905h.69a.453.453 0 000-.905h-.69a.453.453 0 000 .905z"/></g></svg>