<svg width="48" height="48" fill="none" xmlns="http://www.w3.org/2000/svg"><path d="M10.268 30.632c.793 0 1.164.322 1.633.728.53.46 1.132.982 2.311.982 1.18 0 1.78-.522 2.311-.982.47-.407.84-.728 1.633-.728s1.164.321 1.633.728c.53.46 1.132.981 2.312.981s1.781-.521 2.312-.982c.47-.406.84-.727 1.634-.727.793 0 1.164.321 1.634.728.53.46 1.132.981 2.312.981s1.782-.521 2.314-.981c.47-.407.84-.728 1.634-.728.793 0 1.165.321 1.635.728.53.46 1.133.981 2.313.981a.519.519 0 000-1.036c-.794 0-1.165-.321-1.635-.728-.53-.46-1.133-.981-2.313-.981-1.18 0-1.782.521-2.313.982-.415.358-.754.65-1.373.714a.517.517 0 00.04-.201v-2.34l.001-.018V15.83c0-.513 0-1.58-1.408-1.58s-1.408 1.067-1.408 1.58a.519.519 0 001.036 0c0-.544 0-.544.372-.544s.372 0 .372.544v1.815h-7.203V15.83c0-.513 0-1.58-1.408-1.58s-1.408 1.067-1.408 1.58a.519.519 0 001.036 0c0-.544 0-.544.372-.544.373 0 .373 0 .373.544v15.18a4.718 4.718 0 01-.554-.432c-.53-.46-1.132-.982-2.312-.982s-1.78.522-2.311.982c-.47.407-.84.728-1.633.728s-1.163-.321-1.633-.728c-.53-.46-1.132-.981-2.311-.981a.518.518 0 000 1.035zm11.79-11.952h7.203v2.488h-7.204V18.68zm0 3.524h7.203v2.488h-7.204v-2.488zm0 3.524h7.203v2.487h-7.204v-2.487zm0 5.364v-1.84h7.203v1.84c0 .033.004.065.01.097-.353-.129-.612-.352-.911-.611-.53-.46-1.133-.982-2.313-.982-1.18 0-1.781.522-2.312.982-.47.407-.84.728-1.633.728-.032 0-.06-.004-.09-.005a.515.515 0 00.046-.21z" fill="#fff"/><path d="M10.268 32.79c.793 0 1.164.322 1.633.728.53.46 1.132.981 2.311.981 1.18 0 1.78-.52 2.311-.981.47-.407.84-.728 1.633-.728s1.164.321 1.633.728c.53.46 1.132.981 2.312.981s1.78-.521 2.312-.982c.47-.406.84-.727 1.634-.727.793 0 1.164.321 1.634.728.53.46 1.131.981 2.311.981 1.181 0 1.783-.521 2.314-.982.47-.406.841-.727 1.635-.727.793 0 1.164.321 1.635.728.53.46 1.133.981 2.313.981a.519.519 0 000-1.036c-.794 0-1.165-.321-1.635-.728-.531-.46-1.133-.981-2.313-.981-1.18 0-1.782.521-2.314.982-.47.406-.84.727-1.634.727-.793 0-1.164-.32-1.634-.728-.53-.46-1.132-.98-2.312-.98s-1.782.52-2.313.98c-.469.407-.84.728-1.633.728s-1.164-.32-1.633-.728c-.53-.46-1.132-.98-2.312-.98s-1.78.52-2.311.98c-.47.407-.84.729-1.633.729s-1.163-.322-1.633-.728c-.53-.46-1.132-.982-2.311-.982a.518.518 0 000 1.036z" fill="#fff"/></svg>