<svg width="64" height="64" fill="none" xmlns="http://www.w3.org/2000/svg"><path d="M45.276 40.845c0-.008.003-.014.003-.021a.534.534 0 00-.05-.183c-.007-.013-.016-.023-.023-.035a.514.514 0 00-.106-.127c-.01-.01-.014-.02-.022-.028-.01-.007-.022-.008-.032-.014a.503.503 0 00-.141-.063c-.019-.006-.036-.016-.056-.019l-.012-.003-6.147-.84V23.354c0-.952-.44-1.84-1.192-2.419-.477-.397-1.147-.713-1.936-.93V16.11h-.046c-.001-.819-1.336-1.11-2.479-1.11-1.144 0-2.478.291-2.478 1.111h-.046v3.892c-.773.215-1.433.522-1.892.895a3.168 3.168 0 00-.729.807v-3.084c0-.903-1.467-1.224-2.725-1.224s-2.726.32-2.726 1.224v4.319c-.88.24-1.62.587-2.134 1.014A3.317 3.317 0 0019 26.59v17.922c.003 1.6 3.199 2.329 6.166 2.329.43 0 .864-.017 1.295-.048a.498.498 0 00.323.39l7.035 2.248a.501.501 0 00.347-.014l10.79-4.314a.51.51 0 00.323-.476v-3.768c0-.004-.003-.008-.003-.013zm-16.794.015c-.829.21-1.92.37-3.316.37-1.123 0-2.048-.106-2.807-.255v-8.09c.886.155 1.856.233 2.807.233 1.14 0 2.305-.109 3.316-.331v8.073zm13.755.17l-8.276 2.3-3.644-.803v-.384l7.986-1.648.01-.002 3.924.537zm-9.2-25.105c.563 0 .987.076 1.261.16-.267.085-.687.168-1.26.168s-.992-.082-1.26-.168c.273-.084.697-.16 1.26-.16zm-1.507 1.157c.89.263 2.125.263 3.015 0v3.728c-.182.108-.716.262-1.508.262-.79 0-1.326-.154-1.508-.262v-3.728zm-2.282 4.617c.312-.254.764-.476 1.289-.646.127.756 1.344 1.035 2.5 1.035 1.158 0 2.376-.28 2.5-1.037.54.175.998.405 1.325.676.515.398.812.99.812 1.628V39.58l-5.685 1.171a13.457 13.457 0 01-.654-.06v-3.2a15.64 15.64 0 001.703.098c1.212 0 2.462-.134 3.477-.413V27.91c-.262.084-.58.157-.924.226a13.25 13.25 0 01-2.553.232c-.636 0-1.201-.038-1.702-.098v-1.68a3.301 3.301 0 00-1.326-2.649c-.41-.332-.952-.611-1.578-.83a2.06 2.06 0 01.816-1.411zm2.087 14.87V29.19a15.088 15.088 0 004.255-.114v7.357a13.24 13.24 0 01-2.553.232c-.635 0-1.201-.037-1.702-.098zm-6.168-18.154c.676 0 1.18.1 1.473.203-.076.026-.149.054-.253.08-.01.002-.024.003-.035.007-.123.028-.27.052-.428.073-.045.005-.092.012-.14.016-.188.019-.39.034-.617.034-.227 0-.427-.016-.615-.034l-.143-.016a4.616 4.616 0 01-.417-.071l-.046-.01c-.104-.025-.178-.053-.253-.08.293-.103.797-.202 1.474-.202zm-1.71 1.198c.026.009.056.01.08.018.2.059.41.107.63.14.13.021.26.032.394.044a7.18 7.18 0 00.974.016l.228-.015c.142-.014.28-.025.416-.047a4.43 4.43 0 00.62-.14c.024-.007.054-.009.079-.016v4.203c-.185.125-.789.31-1.71.31-.92 0-1.524-.186-1.709-.31v-4.203h-.001zm-3.44 24.896V26.59c0-.716.332-1.384.926-1.843.361-.3.89-.56 1.513-.753.08.844 1.49 1.15 2.711 1.15.806 0 1.683-.138 2.218-.47.276-.171.466-.393.493-.68.189.058.352.135.523.205.38.158.725.333.982.54a2.31 2.31 0 01.935 1.85v14.51l-.82.169v-9.859a7.465 7.465 0 01-1.016.322c-.828.21-1.92.37-3.315.37a14.59 14.59 0 01-2.808-.254 9.352 9.352 0 01-1.016-.249v10.195c1.115.307 2.491.454 3.824.454.427 0 .858-.02 1.283-.051a.501.501 0 01.177-.274c.003-.004.003-.01.008-.012.002-.002.007-.002.008-.004-.006.004-.011.01-.016.016a.5.5 0 00-.158.274c-.01.037-.026.072-.026.112v.087l-.012 3.382a16.6 16.6 0 01-1.264.047c-3.396 0-5.149-.922-5.15-1.315zm7.438 1.81l.002-.655.01-2.709 2.852.626 1.016.223 2.129.466v3.971l-6.009-1.922zm16.801-2.039l-9.767 3.905v-3.938l9.767-2.714v2.747z" fill="#fff"/></svg>