<svg width="48" height="48" fill="none" xmlns="http://www.w3.org/2000/svg"><path d="M34.866 22.812h-.928v-.394a1.623 1.623 0 00-.514-1.17 1.794 1.794 0 00-2.16-.224 1.655 1.655 0 00-.94-1.32 1.816 1.816 0 00-1.676.05 1.643 1.643 0 00-.852 1.373v1.685h-7.592v-1.71a1.642 1.642 0 00-.853-1.372 1.816 1.816 0 00-1.675-.05c-.53.258-.885.756-.94 1.32a1.792 1.792 0 00-2.154.227c-.326.31-.51.73-.512 1.168v.417h-.928c-.298 0-.585.11-.799.31a1.065 1.065 0 00-.343.753v1.024c.007.284.13.554.343.753.214.199.5.31.8.31h.927v.393c.002.44.187.86.514 1.17a1.794 1.794 0 002.16.224c.055.564.41 1.062.94 1.32s1.163.24 1.676-.05c.512-.288.834-.806.853-1.372v-1.685h7.6v1.685c.018.566.34 1.084.852 1.373a1.816 1.816 0 001.675.05c.531-.259.886-.757.941-1.32a1.779 1.779 0 002.14-.222c.323-.304.509-.716.518-1.149v-.417h.919c.303 0 .593-.115.807-.319a1.06 1.06 0 00.335-.768v-1.024a1.064 1.064 0 00-.349-.735 1.173 1.173 0 00-.785-.304zm-21.724 2.362a.307.307 0 01-.314-.299v-1.024a.31.31 0 01.315-.252h.927v1.575h-.928zm2.666 2.048a.944.944 0 01-.633-.248.855.855 0 01-.277-.595v-3.985a.876.876 0 01.48-.687.96.96 0 01.869 0 .874.874 0 01.48.688v3.984a.846.846 0 01-.27.615.936.936 0 01-.649.251v-.023zm2.658 1.291a.945.945 0 01-.647-.253.854.854 0 01-.272-.613v-6.544a.874.874 0 01.48-.688.96.96 0 01.869 0 .874.874 0 01.48.688v6.504a.84.84 0 01-.242.654.935.935 0 01-.668.276v-.024zm1.738-3.339V23.6h7.6v1.575h-7.6zm10.257 2.497a.873.873 0 01-.48.687.959.959 0 01-.868 0 .874.874 0 01-.481-.687v-6.568a.873.873 0 01.48-.687.959.959 0 01.869 0 .873.873 0 01.48.687v6.568zm2.65-1.292a.873.873 0 01-.481.688.96.96 0 01-.868 0 .874.874 0 01-.481-.688v-3.984c.03-.292.21-.55.48-.688a.96.96 0 01.869 0 .873.873 0 01.48.688v3.984zm2.06-1.48c0 .165-.14.299-.314.299h-.919v-1.599h.92c.173 0 .314.134.314.3v1z" fill="#fff"/></svg>