<svg width="48" height="48" fill="none" xmlns="http://www.w3.org/2000/svg"><path d="M23.83 20.6c-1.657 0-2.997 1.285-2.997 2.871s1.34 2.87 2.996 2.87 2.997-1.284 2.997-2.87-1.34-2.87-2.997-2.87zm0 5.024c-1.223 0-2.209-.944-2.209-2.115 0-1.171.986-2.153 2.208-2.153 1.222 0 2.208.944 2.208 2.115 0 1.17-.986 2.153-2.208 2.153zm11.434-6.383h-9.227a5.377 5.377 0 00-2.208-.491c-.788 0-1.538.189-2.208.491h-9.227c-.236 0-.394.151-.394.378v7.705c0 .226.158.377.394.377h.395v.53c0 .566.473 1.019 1.065 1.019h2.168c.592 0 1.065-.453 1.065-1.02v-.529h4.495c.67.303 1.42.491 2.208.491.789 0 1.538-.188 2.208-.49h4.534v.528c0 .566.473 1.02 1.065 1.02h2.169c.591 0 1.064-.453 1.064-1.02v-.53h.395c.236 0 .394-.15.394-.378V19.62c.04-.19-.118-.378-.355-.378zM16.337 28.23c0 .15-.118.264-.276.264h-2.169c-.157 0-.276-.113-.276-.264v-.529h2.76v.529h-.039zm.789-1.284h-4.338v-6.95h7.69c-.986.87-1.617 2.116-1.617 3.475 0 1.36.63 2.606 1.616 3.475h-3.351zm6.703.529c-2.287 0-4.18-1.776-4.18-4.004 0-2.228 1.893-3.965 4.18-3.965s4.18 1.775 4.18 4.003-1.893 3.966-4.18 3.966zm10.252.755c0 .15-.118.264-.276.264h-2.169c-.158 0-.276-.113-.276-.264v-.529h2.76v.529h-.04zm.788-1.284H27.18c.986-.869 1.617-2.115 1.617-3.475 0-1.36-.63-2.606-1.617-3.474h7.69v6.949zm-2.918-5.779c0-.226.158-.378.395-.378h1.301c.237 0 .395.151.395.378s-.158.378-.395.378h-1.301c-.197 0-.394-.151-.394-.378z" fill="#fff"/></svg>