<svg width="64" height="64" fill="none" xmlns="http://www.w3.org/2000/svg"><path d="M43.143 19H20.857A1.858 1.858 0 0019 20.854V35.69a1.853 1.853 0 001.857 1.855h10.524v4.4a22.713 22.713 0 00-8.283 1.781.618.618 0 00-.322.804.606.606 0 00.805.432 20.962 20.962 0 0116.826 0 .593.593 0 00.247 0 .63.63 0 10.235-1.236 22.652 22.652 0 00-8.27-1.78v-4.401h10.524A1.858 1.858 0 0045 35.689V20.854A1.853 1.853 0 0043.143 19zm.619 16.69a.618.618 0 01-.619.618H20.857a.619.619 0 01-.619-.618V20.854a.62.62 0 01.619-.618h22.286a.62.62 0 01.619.618V35.69z" fill="#fff"/></svg>