<svg width="70" height="71" fill="none" xmlns="http://www.w3.org/2000/svg"><g clip-path="url(#clip0_5704_15671)" fill="#fff"><path d="M49.88 10.723H10.355v59.454h9.575V20.286h29.95v49.891h9.564V10.723H49.88zM4.464 49.099a4.464 4.464 0 100-8.927 4.464 4.464 0 000 8.927zm0-20.086a4.464 4.464 0 100-8.927 4.464 4.464 0 000 8.927zM24.862 8.927a4.464 4.464 0 100-8.927 4.464 4.464 0 000 8.927zm20.086 0a4.464 4.464 0 100-8.927 4.464 4.464 0 000 8.927zM4.464 69.185a4.464 4.464 0 100-8.927 4.464 4.464 0 000 8.927zm61.074-20.086a4.464 4.464 0 100-8.927 4.464 4.464 0 000 8.927zm0-20.086a4.464 4.464 0 100-8.927 4.464 4.464 0 000 8.927zm0 40.172a4.464 4.464 0 100-8.927 4.464 4.464 0 000 8.927z"/></g><defs><clipPath id="clip0_5704_15671"><path fill="#fff" d="M0 0h70v70.178H0z"/></clipPath></defs></svg>