<svg width="48" height="48" fill="none" xmlns="http://www.w3.org/2000/svg"><path d="M15.628 15.75c-.62 0-1.12.506-1.12 1.135v12.47c0 .126.092.22.217.22h18.55a.212.212 0 00.218-.22v-12.47c0-.628-.5-1.135-1.121-1.135H15.628zm0 .44h16.744c.38 0 .686.31.686.697v12.249H14.94V16.493h.163c.125-.173.297-.302.526-.302h0zm-2.494 13.764c-.63 0-1.134.511-1.134 1.146 0 .637.506 1.15 1.134 1.15h21.735c.627 0 1.131-.513 1.131-1.15 0-.636-.503-1.146-1.13-1.146a.212.212 0 00-.218.218c0 .126.093.22.217.22a.71.71 0 010 1.42H13.134a.71.71 0 010-1.42.214.214 0 00.217-.22.212.212 0 00-.217-.218v0z" stroke="#fff" stroke-width=".5"/></svg>