<svg width="70" height="71" fill="none" xmlns="http://www.w3.org/2000/svg"><g clip-path="url(#clip0_5381_12922)" fill="#fff"><path d="M69.955 0H0v9.67h69.955V0zM29.426 20.309H0v9.67h29.426v-9.67zm40.574 0H40.574v9.67H70v-9.67zM6.408 39.694a4.513 4.513 0 100-9.026 4.513 4.513 0 000 9.026zm16.113 0a4.513 4.513 0 100-9.026 4.513 4.513 0 000 9.026zm24.711 0a4.513 4.513 0 100-9.026 4.513 4.513 0 000 9.026zm16.111 0a4.513 4.513 0 100-9.026 4.513 4.513 0 000 9.026zM29.426 51H0v9.67h29.426V51zM70 51H40.574v9.67H70V51zM6.408 70.382a4.513 4.513 0 100-9.027 4.513 4.513 0 000 9.027zm16.113 0a4.513 4.513 0 100-9.026 4.513 4.513 0 000 9.026zm24.711 0a4.513 4.513 0 100-9.026 4.513 4.513 0 000 9.026zm16.111 0a4.513 4.513 0 100-9.026 4.513 4.513 0 000 9.026z"/></g><defs><clipPath id="clip0_5381_12922"><path fill="#fff" d="M0 0h70v70.384H0z"/></clipPath></defs></svg>