<svg width="48" height="48" fill="none" xmlns="http://www.w3.org/2000/svg"><path d="M29.99 29.76a.434.434 0 00.213-.055c.14-.085.275-.182.4-.288a2.836 2.836 0 00.988-2.528l-.19-1.65a.435.435 0 00-.864.098l.19 1.653a1.972 1.972 0 01-.674 1.762 2.01 2.01 0 01-.288.193.432.432 0 00.216.806l.009.008z" fill="#fff"/><path d="M31.456 35.114a.432.432 0 00-.432-.432H29.23v-3.435a3.997 3.997 0 003.55-4.48l-.673-5.845a.429.429 0 00-.43-.383H25.92a.432.432 0 00-.429.383l-.67 5.845a4.031 4.031 0 001.413 3.584c.61.499 1.35.81 2.134.896v3.434h-1.783a.432.432 0 100 .864h4.44a.432.432 0 00.432-.431zm-.161-13.711l.253 2.223h-5.5l.248-2.223h4.999zm-5.618 5.47l.274-2.375h5.698l.27 2.375a3.138 3.138 0 01-3.12 3.536 3.139 3.139 0 01-3.122-3.544v.008zm-2.872 7.35V23.605a5.266 5.266 0 00-.455-2.338c-.08-.205-.17-.44-.27-.726a12.599 12.599 0 00-.447-1.054 5.362 5.362 0 01-.518-1.408l-.153-2.879a.44.44 0 00.199-.365v-.933a1.151 1.151 0 00-1.152-1.152h-1.468a1.151 1.151 0 00-1.152 1.152v.933a.43.43 0 00.202.365l-.15 2.86c-.103.49-.275.963-.513 1.404-.155.343-.32.697-.449 1.066-.1.288-.19.52-.27.728a5.243 5.243 0 00-.455 2.344v10.621a1.404 1.404 0 001.46 1.333h4.131a1.404 1.404 0 001.46-1.333zm-.864-4.054h-3.334v-5.787h3.334v5.787zm-3.685-16.267c0-.16.129-.288.288-.288h1.468a.287.287 0 01.288.288v.5h-2.044v-.5zM16.62 34.223V23.602a4.477 4.477 0 01.398-2.047c.083-.21.175-.452.288-.763.112-.311.267-.654.417-.976.28-.533.474-1.106.576-1.7l.153-2.861h1.655l.153 2.88v.025c.106.584.3 1.148.575 1.673.15.325.306.662.418.979.112.316.196.538.288.751.277.613.413 1.28.397 1.952h-3.763a.432.432 0 00-.432.432v6.642c0 .239.194.432.432.432h3.766v3.202a.553.553 0 01-.596.47h-4.129a.553.553 0 01-.596-.47z" fill="#fff"/></svg>